<mxfile host="app.diagrams.net" agent="Mozilla/5.0 (Windows NT 10.0; Win64; x64) AppleWebKit/537.36 (KHTML, like Gecko) Chrome/126.0.0.0 YaBrowser/24.7.0.0 Safari/537.36" version="24.7.17">
  <diagram name="Страница — 1" id="dkEfCUvoQU7eXdqpv7m3">
    <mxGraphModel dx="2326" dy="1872" grid="1" gridSize="10" guides="1" tooltips="1" connect="1" arrows="1" fold="1" page="1" pageScale="1" pageWidth="827" pageHeight="1169" math="0" shadow="0">
      <root>
        <mxCell id="0" />
        <mxCell id="1" parent="0" />
        <mxCell id="Z0_R9jMkdf56CGR1nw3I-1" value="&#xa;&lt;b id=&quot;docs-internal-guid-95973976-7fff-bc88-fcc6-fddae505b6ca&quot; style=&quot;font-weight:normal;&quot;&gt;&lt;div align=&quot;left&quot; style=&quot;margin-left:0pt;&quot; dir=&quot;ltr&quot;&gt;&lt;table style=&quot;border:none;border-collapse:collapse;&quot;&gt;&lt;colgroup&gt;&lt;col width=&quot;104&quot;&gt;&lt;/colgroup&gt;&lt;tbody&gt;&lt;tr style=&quot;height:0pt&quot;&gt;&lt;td style=&quot;border-left:solid #c4dfb2 0.5pt;border-right:solid #c4dfb2 0.5pt;border-bottom:solid #c4dfb2 0.5pt;border-top:solid #c4dfb2 0.5pt;vertical-align:top;background-color:#a9d08e;padding:0pt 5.75pt 0pt 5.75pt;overflow:hidden;overflow-wrap:break-word;&quot;&gt;&lt;p style=&quot;line-height:1.2;margin-top:0pt;margin-bottom:0pt;&quot; dir=&quot;ltr&quot;&gt;&lt;span style=&quot;font-size:11pt;font-family:Arial,sans-serif;color:#404040;background-color:transparent;font-weight:400;font-style:normal;font-variant:normal;text-decoration:none;vertical-align:baseline;white-space:pre;white-space:pre-wrap;&quot;&gt;Варианты использования \ Сущность&lt;/span&gt;&lt;/p&gt;&lt;/td&gt;&lt;/tr&gt;&lt;tr style=&quot;height:0pt&quot;&gt;&lt;td style=&quot;border-left:solid #c4dfb2 0.5pt;border-right:solid #c4dfb2 0.5pt;border-bottom:solid #c4dfb2 0.5pt;border-top:solid #c4dfb2 0.5pt;vertical-align:top;background-color:#a9d08e;padding:0pt 5.75pt 0pt 5.75pt;overflow:hidden;overflow-wrap:break-word;&quot;&gt;&lt;p style=&quot;line-height:1.2;margin-top:0pt;margin-bottom:0pt;&quot; dir=&quot;ltr&quot;&gt;&lt;span style=&quot;font-size:11pt;font-family:Arial,sans-serif;color:#404040;background-color:transparent;font-weight:400;font-style:normal;font-variant:normal;text-decoration:none;vertical-align:baseline;white-space:pre;white-space:pre-wrap;&quot;&gt;Регистрация пользователя&lt;/span&gt;&lt;/p&gt;&lt;/td&gt;&lt;/tr&gt;&lt;tr style=&quot;height:0pt&quot;&gt;&lt;td style=&quot;border-left:solid #c4dfb2 0.5pt;border-right:solid #c4dfb2 0.5pt;border-bottom:solid #c4dfb2 0.5pt;border-top:solid #c4dfb2 0.5pt;vertical-align:top;background-color:#a9d08e;padding:0pt 5.75pt 0pt 5.75pt;overflow:hidden;overflow-wrap:break-word;&quot;&gt;&lt;p style=&quot;line-height:1.2;margin-top:0pt;margin-bottom:0pt;&quot; dir=&quot;ltr&quot;&gt;&lt;span style=&quot;font-size:11pt;font-family:Arial,sans-serif;color:#404040;background-color:transparent;font-weight:400;font-style:normal;font-variant:normal;text-decoration:none;vertical-align:baseline;white-space:pre;white-space:pre-wrap;&quot;&gt;Редактирование информации о пользователе&lt;/span&gt;&lt;/p&gt;&lt;/td&gt;&lt;/tr&gt;&lt;tr style=&quot;height:0pt&quot;&gt;&lt;td style=&quot;border-left:solid #c4dfb2 0.5pt;border-right:solid #c4dfb2 0.5pt;border-bottom:solid #c4dfb2 0.5pt;border-top:solid #c4dfb2 0.5pt;vertical-align:top;background-color:#a9d08e;padding:0pt 5.75pt 0pt 5.75pt;overflow:hidden;overflow-wrap:break-word;&quot;&gt;&lt;p style=&quot;line-height:1.2;margin-top:0pt;margin-bottom:0pt;&quot; dir=&quot;ltr&quot;&gt;&lt;span style=&quot;font-size:11pt;font-family:Arial,sans-serif;color:#404040;background-color:transparent;font-weight:400;font-style:normal;font-variant:normal;text-decoration:none;vertical-align:baseline;white-space:pre;white-space:pre-wrap;&quot;&gt;Разместить событие&lt;/span&gt;&lt;/p&gt;&lt;/td&gt;&lt;/tr&gt;&lt;tr style=&quot;height:0pt&quot;&gt;&lt;td style=&quot;border-left:solid #c4dfb2 0.5pt;border-right:solid #c4dfb2 0.5pt;border-bottom:solid #c4dfb2 0.5pt;border-top:solid #c4dfb2 0.5pt;vertical-align:top;background-color:#a9d08e;padding:0pt 5.75pt 0pt 5.75pt;overflow:hidden;overflow-wrap:break-word;&quot;&gt;&lt;p style=&quot;line-height:1.2;margin-top:0pt;margin-bottom:0pt;&quot; dir=&quot;ltr&quot;&gt;&lt;span style=&quot;font-size:11pt;font-family:Arial,sans-serif;color:#404040;background-color:transparent;font-weight:400;font-style:normal;font-variant:normal;text-decoration:none;vertical-align:baseline;white-space:pre;white-space:pre-wrap;&quot;&gt;Изменить событие&lt;/span&gt;&lt;/p&gt;&lt;/td&gt;&lt;/tr&gt;&lt;tr style=&quot;height:0pt&quot;&gt;&lt;td style=&quot;border-left:solid #c4dfb2 0.5pt;border-right:solid #c4dfb2 0.5pt;border-bottom:solid #c4dfb2 0.5pt;border-top:solid #c4dfb2 0.5pt;vertical-align:top;background-color:#a9d08e;padding:0pt 5.75pt 0pt 5.75pt;overflow:hidden;overflow-wrap:break-word;&quot;&gt;&lt;p style=&quot;line-height:1.2;margin-top:0pt;margin-bottom:0pt;&quot; dir=&quot;ltr&quot;&gt;&lt;span style=&quot;font-size:11pt;font-family:Arial,sans-serif;color:#404040;background-color:transparent;font-weight:400;font-style:normal;font-variant:normal;text-decoration:none;vertical-align:baseline;white-space:pre;white-space:pre-wrap;&quot;&gt;Фиксирование исхода события&lt;/span&gt;&lt;/p&gt;&lt;/td&gt;&lt;/tr&gt;&lt;tr style=&quot;height:0pt&quot;&gt;&lt;td style=&quot;border-left:solid #c4dfb2 0.5pt;border-right:solid #c4dfb2 0.5pt;border-bottom:solid #c4dfb2 0.5pt;border-top:solid #c4dfb2 0.5pt;vertical-align:top;background-color:#a9d08e;padding:0pt 5.75pt 0pt 5.75pt;overflow:hidden;overflow-wrap:break-word;&quot;&gt;&lt;p style=&quot;line-height:1.2;margin-top:0pt;margin-bottom:0pt;&quot; dir=&quot;ltr&quot;&gt;&lt;span style=&quot;font-size:11pt;font-family:Arial,sans-serif;color:#404040;background-color:transparent;font-weight:400;font-style:normal;font-variant:normal;text-decoration:none;vertical-align:baseline;white-space:pre;white-space:pre-wrap;&quot;&gt;Создание ставки&lt;/span&gt;&lt;/p&gt;&lt;/td&gt;&lt;/tr&gt;&lt;tr style=&quot;height:0pt&quot;&gt;&lt;td style=&quot;border-left:solid #c4dfb2 0.5pt;border-right:solid #c4dfb2 0.5pt;border-bottom:solid #c4dfb2 0.5pt;border-top:solid #c4dfb2 0.5pt;vertical-align:top;background-color:#a9d08e;padding:0pt 5.75pt 0pt 5.75pt;overflow:hidden;overflow-wrap:break-word;&quot;&gt;&lt;p style=&quot;line-height:1.2;margin-top:0pt;margin-bottom:0pt;&quot; dir=&quot;ltr&quot;&gt;&lt;span style=&quot;font-size:11pt;font-family:Arial,sans-serif;color:#404040;background-color:transparent;font-weight:400;font-style:normal;font-variant:normal;text-decoration:none;vertical-align:baseline;white-space:pre;white-space:pre-wrap;&quot;&gt;Управление ставками&lt;/span&gt;&lt;/p&gt;&lt;/td&gt;&lt;/tr&gt;&lt;tr style=&quot;height:0pt&quot;&gt;&lt;td style=&quot;border-left:solid #c4dfb2 0.5pt;border-right:solid #c4dfb2 0.5pt;border-bottom:solid #c4dfb2 0.5pt;border-top:solid #c4dfb2 0.5pt;vertical-align:top;background-color:#a9d08e;padding:0pt 5.75pt 0pt 5.75pt;overflow:hidden;overflow-wrap:break-word;&quot;&gt;&lt;p style=&quot;line-height:1.2;margin-top:0pt;margin-bottom:0pt;&quot; dir=&quot;ltr&quot;&gt;&lt;span style=&quot;font-size:11pt;font-family:Arial,sans-serif;color:#404040;background-color:transparent;font-weight:400;font-style:normal;font-variant:normal;text-decoration:none;vertical-align:baseline;white-space:pre;white-space:pre-wrap;&quot;&gt;Редактировать сотрудников&lt;/span&gt;&lt;/p&gt;&lt;/td&gt;&lt;/tr&gt;&lt;/tbody&gt;&lt;/table&gt;&lt;/div&gt;&lt;/b&gt;&#xa;&#xa;" style="rounded=1;whiteSpace=wrap;html=1;" vertex="1" parent="1">
          <mxGeometry x="-70" y="-10" width="290" height="60" as="geometry" />
        </mxCell>
        <mxCell id="Z0_R9jMkdf56CGR1nw3I-9" style="edgeStyle=none;shape=connector;rounded=0;orthogonalLoop=1;jettySize=auto;html=1;exitX=0;exitY=0.5;exitDx=0;exitDy=0;strokeColor=default;strokeWidth=2;align=center;verticalAlign=middle;fontFamily=Helvetica;fontSize=12;fontColor=default;labelBackgroundColor=default;endArrow=none;endFill=0;" edge="1" parent="1" source="Z0_R9jMkdf56CGR1nw3I-2">
          <mxGeometry relative="1" as="geometry">
            <mxPoint x="-540" y="440" as="targetPoint" />
          </mxGeometry>
        </mxCell>
        <mxCell id="Z0_R9jMkdf56CGR1nw3I-2" value="Целевая система" style="rounded=1;whiteSpace=wrap;html=1;strokeWidth=2;" vertex="1" parent="1">
          <mxGeometry x="770" y="410" width="120" height="60" as="geometry" />
        </mxCell>
        <mxCell id="Z0_R9jMkdf56CGR1nw3I-8" value="" style="shape=image;verticalLabelPosition=bottom;labelBackgroundColor=default;verticalAlign=top;aspect=fixed;imageAspect=0;image=data:image/png,iVBORw0KGgoAAAANSUhEUgAAAqEAAAEuCAYAAAC+rMvOAAAAAXNSR0IArs4c6QAAAARnQU1BAACxjwv8YQUAAAAJcEhZcwAADsMAAA7DAcdvqGQAAHkvSURBVHhe7Z0JnE1lH8f/liJaqFQqS9FCskRFWixlCSmESkjZ2ixpe1ve1rdVkggpQvZ9X6JISURZs2UJ2ZMlu/vO93GOJpHBzLn33Pl9P5/5zNxn7px759znPOf3/Nc0kQRMCCGEEEKIAEnrfRdCCCGEECIwJEKFEEIIIUTgSIQKIYQQQojAkQgVQgghhBCBIxEqhBBCCCECRyJUCCGEEEIEjkSoEEIIIYQIHIlQIYQQQggROBKhQgghhBAicCRChRBCCCFE4EiECiGEEEKIwJEIFUIIIYQQgSMRKoQQQgghAkciVAghhBBCBI5EqBBCCCGECByJUCGEEEIIEThpIgl4P4vj4NFHH7UDBw5YmjRpvJH4ZMmSJfbMM89Y6dKlvRGRmvjxxx+tRYsWlj9/fm8kftm5c6d9+umn3iMRa/z222925513WrFixbyR+GXdunU2YMAA75EQ8YtE6AmCCP3ggw8sbdr4Nib379/fzj33XInQVAoidPr06dawYUNvJH555JFHrH379t4jEWsgQrt06WIvvPCCNxK/aC6K1ILc8UIIIYQQInAkQoUQQgghROBIhAbEwoULXYzP0KFDvREhwsWYMWPcHOZrwYIF3qgQsQ2x+4SUMG8nTZrkjQohYgHFhJ4gxxMT+tNPP1m7du3sjjvusJ9//tnOOOMMa9Soka1Zs8a2b99uOXPmtD179tjatWstXbp0dskll7i/Iyno9NNPt+zZs7vf7d271/bv328XX3yx/f7773b++ee78WzZsrlA9owZM7ovFt2tW7e65+/atcsdi+eeeuqp7njHg2JCUzeJY0LLlStnDz30kJsPJPD873//sx07dtiZZ57p5ihzefXq1S5ZL3fu3G5O85g5nSNHDjcns2TJ4mL7mJv79u1zr3HOOee455x22mm2YcMGd3zmM3+fNWtWN3eZ78z1s88+28466yxbsWKFsXTxuszrX3/91c17HnNcroNMmTK5a4zvHJ/3tWXLFrvooovc8fmZay9z5szufRxPHB7XFe8pNcD54TOONicaEzpy5EgbMWKEVatWzcaPH2+33HKLVapUya2vzJlcuXK5dXXVqlVu3jAnmIcbN250c+byyy+3TZs2ucennHLKod8zj5gDzK1t27a5xxyDNZZ5zkbNPx7POR4UEypSCxKhJ0hSRSiL21NPPWXXXXed1apVyy16Y8eOdQvTK6+84m6wLFgsYNzsuYE2aNDAidVZs2a5xY5F96WXXnLPZbFDzH7xxRfu9R9++GF77bXXrHnz5laoUCErWrSozZ4927777jurXr26dezY0SpWrOgW2vPOO88JieNBIjR1k1iEchNnzrEJ4mfmMPN55cqV1qlTJ5swYYL74kb85ptvups/wpR53LhxY/v222+tbNmy1qtXL/d90KBBdtlll9nVV1/tbuYc991337W3337b6tevb/fee68Tmx999JE9/vjjTpDyWmTr85xrrrnG3dyvvPJKGzdunBOtbOAQs9dff73ddNNN7hjMXeYwghhrbtu2be3ZZ591QhlB64ua47nxz5kzx2bOnGkXXHCBNxKfsB4huFlLos2JiFAqHjz44INu/hQvXtytp3ilmLfMWUTljTfe6P5HROaiRYusQ4cO1qZNG7dJYR2dPHmy+3s2+8wzrgGe0717d3cM1m88XMzrIkWKuLWYuYrllfWfe0WJEiW8d5Q0JEJFaiFdgrh5yftZHAejRo1y4u5YJZrQ+DyXhQ5rEM/nxtuvXz/Lly+fuxm+99577maIVYnnIzZ79Ojhbp7cnBGk3Mx5Ln/Tu3dvt3jy+tzoy5Qp426u3BCxNvF8bsj/+c9/nABgUWTxRfwuX77cWY6SevOcP3++syT51lmRusD6iDWRzQ3zlA0OGyDmHDdkrEr83rcIIfzYKF1xxRWWN29e+/PPP239+vVuTmNNmjFjhtWpU8eJGubi7bff7ixHWKVwlaZPn95KlizpjokQ+Prrr534QHxy8+fvmeNYPtm4cb1wbXFdYV1lniMKfvjhB/vll1+ciGXu8h7wSCAKEFYcs3DhwjZkyBAnWNmgcZ1iIUsKHA+rLOWC2ODF69eFF15oy5Yti4kSXayBCH/mXFLhsx4+fLgr7cS8wKrLvGGT9Nhjj7nP+/3333ePmUPTpk1zm3zmDxst1r/bbrvNfda7d+92IhWDAvMSkYpAZROE1ZM5yrrLXPr888/dRovXZ17fdddd3jtKGsczF4UIM4oJTWG4MbM7ZiFigeLm+txzz7lxdt5//PGHW/xw27CY8VxunlhuChYsaJUrV3YLKDdbbvTcyFkQjwY78rp167qb+eFcddVV7ob91ltvuQVUiOOBm/frr7/uLDRY1LEMIeS4WSNKEZXMMUB8YtUsUKCACz/xYQPGjf1wsLjXqFHDHRO4LjgGghYxxAYN8ck4x8PtjnhEjBIawHxnzAfrKmLWB6vr/fff764zNnyIKyypWLj4v0R8glU8T548NmXKFGf9/Oabb9xmhvACNiybN292z1m8eLEzEjAXsHIz75gjwLrbuXNntx6zgQf+hrWUjRYwV5nX5cuXd2s7ISZcCwjRBx54wD1HCPFPJEIDgF0wrsCmTZu63TdueSxB7J6JsatataqzTH755ZcuZombJy4k3IbsqBGgLKC4gHDxcLPGooNbkgXz+eefd4sgCyOi4Oabbz4U+8nOH5GL5RTLFe55Fk5uxkIcD8wpP/yEGzRzmBs6Vn2sjFicXn31VWcdYtPFTb1Pnz5OOPKFRZ0NFRsgLFrMQcQjXwhNfufPV6xvWPBx0SNwEbO4KDNkyOCsskuXLnXXBlZOhC3Xzrx585w1lLlOHB9ClPfM3/iCgMdYtrBqffjhhzZ37txDwiIIBg4c6Fy/vM/WrVs7S7NIWerVq+e8QMyfjz/+2G2aiMlHWDJf+T3ilM051ky8R8zfl19+2c2p77//3s0hPFDMVd8QwPy69NJL3fxhY8O6jvjEFf/000+7a6Nr165urgkhjoxiQk+QIIvVIzDZTeMODdpqo5jQ1E1Si9WPHj3abYyw3CNI+/bt6xKXTgQ2VmzAiAVFUAbF8caEIi6O101NHPgTTzzhwmcQKLiCOQ5hBlhmETdY7WrWrOnEzldffeXCbrDaIYwQ47wmIp7NKoKJUAdEOZY5wnPYICCe2Lgi0hFJxEOeCLy3iRMnhjYm9ETANU8sMTHPGAWwcDZr1sz7bTAoJlSkFmQJDQFYOLFgxnsShAgvWCtvvfVW9zMiifjlE4WwFKyERwopiQcQjCRpEdLABhOPCOJ92LBhzi2M9RhLMGK0Z8+eLv6UkAO8HFhS8aoQkwiIUUJ8sD4TmoBwx9KK6CRBjGTFqVOnuueKpIGBwd/s41XCWyWESBkkQkMA7klcPMQaCRGL4K70QzywXiaOAz1e+Hvcm8z7eAM3PNZKQnQ4X4QokAhDghShCH4MOSKVGFsy+CknhdCk8gCWSbK7cRvjGSF7G8gCx11MMgvnj/WC4xN+gIjluSR6cSzx73DO/LWWec3nIoRIGSRChRAiILB0kqXtZ/ST9IK4JAacREVc8MSvkqVNeAMWOeIMcQ1TVQAXPHGIPG7ZsuUhNzvuerKy+Tocxnguf0d8oxBCxAoq0XSCJKVEEzFMxMYRU4c1AgsGMVyUo8HCwXfca7jjiOPCbcaNArcarjRKkpCIhHuNmxFxZMRncSySMSiVw06d90L2MDc3LCWU0eG1sYhgTSGmiZsU7xVXIBn07PQTZxMfDf5WJZpSL4lLNCWGOTl48GDnMqacjZ9J3K1bN/d8Eo1wFVMknN8z9yiXxJzz46ix5jH/EWLML64DstipIoH1iWuHWEmsqsQ38lxEFI9JssNayLF5b8Quc51xXWDt85/Lz8xf/zHXDtfekbwKx1uiCZHoZ/MnFc4blk/+P1zxZG7z/3MuyfanBBsWTM4n7neexxiik/8BCzH/L+fIL4FFmA7Pq1ChgnsNYrjJ/sbqynrCGkBsI49x+7NmJBX+x1gv0cS54LMjfpb5gBWY/58kJP535iJrL+se84nPgHPOOfPPBeslc49QB5La+DvmHxUZOB6/Y30mvpa/4fNi/vEz1mjidXltPivmJolylCnj70ncY+6xrnMsPkc2Gcx/Pp8jhZ2oRJNILcgSmoJws+Qmg6WD5AFK1rCQIiYZwy3HAklSB48JugeSCljIWDS5EREPxuLIwsYNh6QNLCY8n05M3KBx55F1zDh/R6YyC+8777zjiirzmAxQ3sO1115rn3zyiROmQpwIiB+EH5Y4aiciICnfhIBCeDLHmd/+Jo35zM0XIQSIG57HDZ+4R0QApcsQUMxRbuzcqBGtxEMjABAbvC5VIkjQ4TW40VNTl7nOBoxkQZKGSKiiniPXCBs5/o73ikjmedECa6YvXKmpipWSpD8slcTUIsZJUGKDS0kgSv6wjhAny3NIEEosOLGoIqrJ+CapCYHKY78KAIKfJBv+lozwWOh8lNwgKplDfL6sfwg+kovIuWUOUUSe9ZWyS76gZD7yXB9EOmsrcxQDwH//+1/3XOYTGy3WXizUPPaNCsx1YpdZ4zEI8J3jIkg5zzQRwdCAOOa98R65Jjg+j4n9JYxCiNSMRGgKwo2AnTE3ViwZuNW4eXDjYCGj/AyCEUsDCyk3aD8rkh02JZhY/Ch4zM0Eiw5iErcdY9xswb8hHQ6Ln2+h4tjczP0yTuzo2YkLcaIwH0l8YY5hWcLVfPfddzvhhMUKAcqNGWuPb/2k7BJfWOvp9oVnAIHIJgsrH1ZCrJmUTuILocsGjmuHx1ifeD6iDNGFMGCeY7HnmkIAcGNH3PHesHhyw0ckU5InmgJUpBx4ffi8WWfZ6CNEEfxVqlRxcwwQ52x6/LlIlj11YhGZ1JDF6s/GnPWVTRIlw9iw8/fUbv7ss8/cBgJxytqJV4rXYo4zP7EW87psyjgmAhihyzzlvbGms7FAwDIXVatZCInQQGEnjksGqw2ucyw4tB/kJg0spAhQhCg3UnblCFHf/YNrkfIuftIHdeq40bPYHQkWyXvuucf9zLFphYh7CNc9XyycQiQHzElEKTdgxOLRSolRkogbPjdhLFK0qOXGTtFwRADXB5syNmilSpVy1iTcnFjusQLiTj4crh8ExzPPPONKSWGhSgwbPN4b1xZWRBHfsNFmE8ImHa/S0aqKUCO0VatWrqIAc5G5hYWdsBHEJd/pPoe3Cus0yV1stLCms7FhbfUt/T4IXZLOsOpjeWadTwxeK9Ze5qKqnQghEZriICDZBbNY4R6iwDZjdDWiZSE3Tqw5jNECEFhAsfQAViNusty4seogXLGkImh5Pj25WWyJD+OGzRfWU3bn1Lbjb8m25Xjswlkgn3zySecCxGogxInApoYbMzD3EJ0U9yY8BCs9rnBc7NzUEZlYN5nnbKKwKDH/scY/9dRTzlKE4GQuv/HGG66oPL22sRgxnykCjsjEfUm8KS5rLFXMa46Bq5mSRbhGKZCPNdTv1Y0li00fGzDgmjlSPKgIL8RU+jHLbF4Qgrjj/ZhQNi+IUeYr1nbmIXOWuUa4EhshNuS44An5wLPE2knxetZu5iYWdNZN4jSZu1jfseZzLP6G57H5ofC9787nmuB5hF0Ac4/30aRJE/eY98N1JERqRsXqT5DjLVZPx5gXX3zRLU7cdFMKdtnE5pFvxg36ZFGx+tRNUovVxwMpUayeeG/ECsIXUUJ2Ox4OPB2IEupQErOK1a127douIYXQGa5jxBOWNIraI57YQBK7iGWXvyfsgVhEP9kKQYMIwhpNeAOeE8IbsAKzMaCEE8fo16+f+x3Hxz39b/A/prZi9bGAitWL1IIsoQHBTYSEopQUoIC7kU41ySFAhRAnB5ZbhB/WL6xybEYRj7TexXqLiMRLgqWWuEN+j2WXUBviExGgPJeNIAKU6hYkY2EFJtmGmEbEJyKR3wEhN4Q28HpYjAFbA8fnGFjssP7hVcGjIoQQ0UIiVAghAgILJCE5eBgQhiSukHiFlZQSTYnB2klsImEzxCXyXAQr4QiI0sMFJPGGxC1iafWhkgBx54QoAMegrSrvgdAFLKRCCBEtJEKFECIgiBfEyunHtWLVJHOfKhmUnEqMX5qJUlZYTX3XPy06SUYkHjExhAb5ZZx8CKOhGgYWWeBnRC0xjIQIEIsuhBDRQjGhJwhZlZSKOTw7MiXhpkW82OHZvykJsWokjxC7JlIfxDMy10ksCgqWJOIeEUhJjblODnhdLIdJIakxodSJJNGQjG0SpMiIxhJJrCevRwk3MrCxUN5www2uMgAilSoBXOeE8ZDcQt1JXosaqlhM+XsSWzgunxFiluMgLjkWVlLiSokNxV3PMRGiCFeej6ufsWM1rIilmFBCDGrWrOned5BgkSa8KciENkIqCJcQIt6RCA0RBOZ/+OGHLnOTG5sQ8QguYuKnybD3M4tjjaSK0OSE80LlC8oD+WXaUppYEqHRgnJibB5I8hJCJC9yx4cIrBZVq1Z1de2wFAkRj1Byh0L2ZJZjNRQH4bzQBSkoASoOQsUBNh10nBNCJC8SoSGDrFiSGGj/JiO2iFdwM5MVTpMGwl6EiBaEhdAJjLhdEsWEEMlHupcoKClCA3FJxJFRWxDLqN+HWoh4g/mNC5qEHVzzQcZfHwtqcxKjfTLXH61O+/bt61o8EvtKDGi/fv3cY2IQaevIcyikPnbsWLfpJK6TbHpKLRHrSZwpm1IgdpTn8t6IJ0S8k4R0MueN/5E41SDDDmIRzivl9ehDz1zEKi2EOHlkCQ0hWImoD9imTRtX8kWIeIWEOJI0iIWMN7h2Edl4N0gqoh85nXzoiEYbSYrOk6AE3333nfuZRCcgO55EHXrm+9CvHwFKp6CKFSu6LHoEpEgeqCxAHebhw4d7I0KIk0WJSSGGsi2zZs1y3WwQpiJ2oS5jPF1qZF7TwpA2iSkNLlBaKNK69lgdfoIiORKTZsyY4ZINsWwiOPFwULweYUrMNy1Hqe+JpRPBSpF7whMo74QgpXc5HYQo43ThhRc6EUuLSfrsky1PP/5bb73VjZ0oSkz6O1iX6ZRXrly5Q21rhRAnjkRoyCFzk5glgudF7NKzZ0+rVq2a9yj8IKAQoJdeeqk3krLQc5vuQbRspGxRtEkOEUobTQQk5ZToZsTxsITiAseKiQglCalMmTKuLz+VAuioRAcmeuojhGirSl99qglQSoh1AJc+LUC///57V86Jlp4nikToP8G6jBeKSLaU7oAnRLwjd3zIuffee90NjNgwIeIV6lti0UO4xQuIO9zqCNoffvjBiUwEDrWAiTtEPBLTCfSc52e/XmuJEiVczCxdkrp37+4ekzlP6TYsxsSQ4h0JwlKd2sASXatWLRf2wPkXQpw4soTGAbjdsJQ8/fTTzi0nYg9ZQk8exBnuZ16XUIAgC9kfTnJYQocMGWJ33nmn+7/4mf8pU6ZM3m9jA1lCjwzWakJsSA6jgH6QheyFiCdkCY0DsmbN6m5guOH27NnjjQoRX/g3/AkTJrhYyrCDAAX+L0oAxZoAFUcH0clnhgWbeF4hxIkhERoHUIKF+DDE6LBhw7xRIeIPSuVQGaJTp04uPlKIaEG4Q/PmzZ1FdOPGjd6oEOJ4kDs+jiCL+NVXX3VJCZR9EbGD3PHJS//+/V1fdERANFi1apWryxlUSABZ2XTsIfbz9NNP90aDgYoExYoV8x6Jw6GiAYlkr7zyijcihEgqEqFxxooVK1zGfKtWrZxlVMQGEqHJC7GKZMvnyZPHlSGKpUL2yQ1Z75QFoirAAw884KphiNiBEKg+ffq4z6dy5cqKDxXiOJA7Ps7IlSuXK1RNCRH1lxfxCkKM+FA6DsVzwwbEdrt27ezMM8+0+vXrS4DGIHS3Yi7SxUrxoUIcHxKhcQgdVyhwzaIoYgeKkH/77bcusxb36sCBA91YNMFyTpcdH96fn9w2cuRI27BhgytDQ8ciWhbSICFWoEbjc88952pkxmNPbyyg/G906aEhBW09RWzCZ/PMM8+4dqmbNm3yRoUQx0IiNE6haPXs2bOdqBCxAYKTcjeI0KFDh7rkGsaoDUlbRpIbaMU4d+5c93xuZpQCooQPMYhTp051Vj+sY9SGBb4jwJYuXerEI8XL6abDc/ni5yO1buS53bp1s/fff99at27t3InA++P49C/v2LGjez9sZqhDSwtN3tvo0aNjpvsTNRvZdPG/cJ7iBTYpH374oStW36hRI/UqDwGEp+CFIhyKa0gIcWwkQuMUduY1atRwbf5osShiB/p/IxbpRb1lyxYbN26cu2nhWibBgVAKxkeNGuV+RnhSGHvNmjVObGG5pK4k0GMcgcr35cuX27PPPuvqxiJOafkI/nMTg0UTYcNNk1IzvB5xnsDPiOQbbrjBiSEScOjKw022SpUqTtzGkuAjJhQhHi8bLjYICFASkIgBpYSTCAfFixd3oRNc00q3EOLYSITGMfSPprMHLj3fxSqiz4ABA1xdV25WWbJkcfFkCFM2DiTYIPawOCIqSXb4+eefnRBFfGLxpIUlXx999JEtXrzYHZP4X8pzUTydrjl0GCI+OEeOHO7YPDdxtyGOR8cdkigQORdccMGh2pu44WkZSUgHVlsEsp+RzXvETRxLN1jiJLEWcuNHkIcZzjXXKzVDH3zwQbngQwbXEl4oNmpH8kAIIf6ORGicQ6kmbmjDhw/3RkQ0oZ837RdpywhYLRF/dKTBeonA4zPDCoowPPfcc51Qpac4lm0skmSEs8EgUcXPTp8/f74TnHwdDi5rnstrEaIBiGBCACi2jaVzwYIFziqK8CUOlPdD+SHEZ4ECBZw1FUHK3+TLly/m3MPEh9Ku8o033nDW2zDC+yYLHuHZtGlTl/AiwgfXTLNmzex///uf4kOFOAYSoXEOli6SGrCYzZo1yxsV0QArJ5ZKv4wLlkgKXuMa/+STT1wtRtqu8kV5LYQqz6FfOH3EaVmJdYWbHFZK/pbnIlpw7ZcuXdpZQbHG8DuEGeCqxhJKWAaCFLCwNm7c2NWA5D0hehCWCFwEKO+Pv2cDw2OEKfGjxJj6v481+F/Kly/vaoiGzfKPJbtDhw7ufGPVjcXzK5LO+eef7+o108VOVUqEODqqE5pKwMpGfCEFlVU/NHhUJzQ4XnrpJStZsqTddttt3khsg2DGAkpYgbLg4ws+VwQpYVFCiH8iS2gqAbHAQkiCCyV3hIhXHn30UZfghdU21vEL0eN6b9KkiQRonEF8KPHbxHILIf6JLKGpCMoBYZHDVUt8oVx+wSFLaLBQUopSOa+99pqb77EIAhQXPOETCNBjxYDi1iXJLJ7A+ku4STxDzPdbb73latpmy5bNGxVCgCyhqQhi/rCGkhwTbzczIRJDIhcxtZS9IqEq1sAF3759eyc8ccEnJQmJxDISyRCv8fI1YcIE77+LX3DHU0aM+NB4qmUrRHIgS2gqBDclViIyOMm+FimPLKHBw9L2zjvvWIkSJeymm27yRqMPZZioA8qmEAtoUltxUieW0l0U548XqG9LxYfUAGsuiYbU2hVCHESW0FQIZXxuueUWdyMUIl6hGsFDDz3ksuVjJSYP658vQB955BH1gk9FkC1PAwm/I5oQQiI01UILRsr1UD9UiUoiXqHMFF2HcIVGu34oMZ20QiUGlPJYsVZrVaQsNKfA8k2LXMqmCSEkQlMtxKARHzpmzBhbtGiRNypE/EHxf4r74w6NVnwosYDUasU6G0QZJvr7b9u2zW0wcXnTJlZEH2KVy5Yta61bt1Z/eSESUExoKoc2h2ToPvHEE3bOOed4oyK5QYDQRjNeIK6YOpyxHBOaGBKBuPGTIEJL0iDBAuoLUFzwWEJPhOOJCX377betQYMGtmLFCpeZTTcpmiHQTpJEGYT5F1984WJlsdCNGDHCxc5mzpzZ/UwTBM4TDS4Y57Wx3pEcxXEQtfwfJDhSdYMGCvxNwYIFj6vqRmqKCfXhltuuXTu78sorrVy5ct6oEKkTiVDh4pRox9i8eXPFqKUQv//+e4pmxmLNRjDMnDnTWdkQBCRBkDxE+086KSW3+5emBycqqKIBHaNo1oA4wzIaBMSAdurUyf388MMPJykL/mgcrwjF04H1l80PwhMRTDmkoUOHuiS5Z555xtVUZa6QpMi5YR245pprbPr06a66AEKV4v/ffvute33au9LRibHrr7/eiSjqnDI2cuRI524+njmRGkUoEBpC0hztcxH1QqRW0iUsJi95P4tUCjehOXPmOKHETYqblUheqFWJlSmlvuhHjyioWrXqofafuGKxdFPWh1I4K1eudFaYM844w70frFe07+T7kY55rK+w1ZlFAPK+EUucq5SOyWTTgZeB64kY0JN1weNeX79+vfusjwWtYKlPyTwg9pv3cscdd9iUKVOcdZQ5gqDkM1y3bp0TjmxasJQinDdu3OjcxVg+f/rpJ1cNgVaxjPMeqHfJ+UQQI1CxMGMd/eabb1wJOKyrSamJyXvAepra4HzjeSJWme5eYdrMCZGcSIQKdyOif/jnn3/u3Ktq6xleEDyISgQF1j7ERqlSpVxfeW56uNHpJoRY+PLLL50oQVikTZvWJfHE+waEyhBbt2515yAlLVC4/xGgQF/+5CiYfzwidOzYse65uP/Xrl3rLG9sQpgLFPJHgPu1OnGpFy1a1JVrYyOK656fOVe0+3322WedeOf1mSt8Rzht2rTJChUq5DwpuOwRoVhWmUe8PmPHIrWKUMA6zbzAGkzog5qHiNSIRKhwYNW46qqr7NVXX3U3mEyZMnm/EfEAogPLFJsNrFd8xnzxmSMqEKW9e/d2Viys4ggWYhmx0DAX4kmcIq5GjRrlQk+SIuiOF4QdWfBYnRFlyRXicjwidMuWLc46SSgGnyNih88RwYP1u0yZMm6cz59QDSymfBUvXtx69Ojh4j9xx2MNZc7wP/F/cByO629UcfVjLWXDw98QT7p8+XLnZk5KjHlqFqHgW5/5bC+//HJvVIjUg2JCxd8YN26cs3488MADig9NRbAMYL3DusUX8X+4bRGjCBHCNHDr4pJFgPDF/AirOMXi9+6777pYxuRMGONcIUAJhcACmpxZ8McTExoWUmtMaGIQ723atHFxumwKhEhNSISKf/D+++87sXH33Xd7IyK1wvKA+xqXLZuT1atXOysbIg4LWuHChV0iC+5bXPp8QRjEKYlcWH//+9//OnfzyUKWOK04+U4SUnK44BMjERq/ECJBBYWXX37ZWaqFSC1IhIp/8McffzgrUf369S1PnjzeqBB/gaWP+FI/aQV3Le5exBxxxVhOqYmYHOIuJRkwYICzRDHXTwZc22TBI0Afe+yxk8qCPxoSofENyYOzZ8+2Fi1aeCNCxD+KCRX/ABciNezatm3rEhYUHyoOB0tnlixZXCwgyS4II6yiCFCSYBCnCDxK/ixevNglx1Aiib9jfvkW02jDJovkLGLyCDc4EQsuAvTjjz9OUQEKxxMTmhLw/5FwRKZ9165d3SaDJLiTIbXHhCaGWOV58+a5ihZs4mLlGhEiJZEIFUcECxYxggTNU9haC6I4Ggg3EpiYM2RGI+zI9qWGJJsZxnHf//zzz/bVV1+5VrHUNcUCScIUVlWOQXbwiYjAk4HXJyb0k08+cWWbjnfDhSDzLaDJHQN6OMklQukaRWLWkCFDnGAmrIJan2wYyHCfP3+++5wQmYjEnj17ujJMJDkRJ4y72K8jSrmvk0Ei9C+Y/2zqmIv58uVTlRKRKpAIFUcEMcCCSPFz6gjysxDHA3MIkULWNTdVhCmlorCcImQQNJSJIjMf0YPQQaxyM+YGHJQg5T1iwe3SpYt7j0m1ZLJJQ4AiRCmFlNwxoIeTXCIU4Yf1l6L9ZMLz2fTv399ZcWnjS1tJMtz5f7BqV6xY0SWoEQvMRoLSQsQIk0kvEZq8MPf4PD799FPnWUjpOSVEtJEIFf8KbqHu3bu7RCUsJkKcLFgfmUsFChQ4VC6KmpKUqKHcD4XWKeKNtQ33JLGnZJ1jbeWmnBLilMQqXodNV1Lqh/oueN7X448/HkglieQUoXg4+H+x3CLAOc8VKlRwllCEOBtP/ic2CtRUJaQid+7crk4olmOJ0JSDMBdCV9gQxFP8rxBHQj5W8a9gsaKMTZ8+fdzCKERyQpgHYgcxg7i5/fbbrVWrVod6n99www1OeCKaSJaj1STib+LEic4qR6wpQjA58iupBsGxEMH/Bs/BZcp3LKApFQOaUuBm51wj/onppLvRkeD/W7p0qd15553uOVh+RTAQykKdVWJwCVcRIl5RdrxIEtz0ceEhAsJ20xXxAUsVLmGscHyRLU4lB1z49Mj3y0XhykfcYjE9XqsplkY6BCGCj1RsnXhKOiFhCaUQfZDu0uTMjifuk3OIpwMLNFZnkhA5PjG9tPxkY+Cfb+JBsZoSekCBdayoWLJPtvqBsuOPDjHTLVu2tP/85z/OCi1EPCIRKpIE04TkBbqn3Hbbbd6oENEHS9GyZctcRj598rHg+f3w/VJRuJyTmnSEhZUWtojRxH/DcbHCIkBxwQe9GVOJptQH4RDEHT/11FPOTS9EvCERKpIMSQpYiO644w5ncRIi1mA5Y54SP4mVFHcyljxEKjdxLKbEN5MsRYINsaCH9+zmGIgjLKz16tVzsagIT5JFCEkJKgb0cCRCUyd0scNyTQMEeaFEvKHEJJFkuBlTgof4UG6EJJgIEUvgfudGjSUUgYkllNJLWO9xO+NSJrmGmzohJvQ6pxMU4pL57e/Jee7o0aOdNRVXNJnzPCeILPijEe06oSmBEpOODRunadOmOUs8Fn0h4glZQsVxQ2woiyIWIW7cQoQVOj1Rs5TscDLAifnEve+LT8pHkcSDeA06BvRwZAlNvWDVf+ONN5w1NJ42IUJIhIrjhuSE9957z66++mqXzSxEPID4JAMci9OmTZucMKV2KX29KVN2st2BThbKV1HoP7k9EFhX58yZ40ozHS1TPqVA3FevXt17JP4N4kPffPNN96X+8iJekAgVJwSuwTZt2riyNhRXFiIewTI6cOBA56ZHLMVTCMrWrVtt0qRJrlMSDQQo2aQWvbELc3DkyJFu04D1WPGhIh5QnVBxQlC+pWbNmtaxY0cnSIWIR0haYp5TxB6xFg9g8SUmloxrkq+efPJJFzMrARrbEO9cuXJlJ0IpZC9EPCBLqDgpJkyYYLNnz7YWLVp4I0LEH9z427Zt6+JCqZMZVggtGDBggLOqkWSl/uThg41D69atrWHDhi5eWYgwIxEqTgriQyldw425UqVK/yh3I0S8QB1S2om+8MILLpYxLLDEb9iwwSUB8Z0Sa4TQyJ0bXig51r59ezcXFR8qwozc8eKkIDv+3nvvtS+++MJ1UREiXrnqqqtc4fshQ4aEppUiNVNx3ZJISG1UXPCFChWSAA05WEApPda/f38XtyxEWJEIFScN8aG447GI4ioSIh4hKalu3bquAP6MGTO80dgEYUL3qOeff97WrVvnWj9iAY1GkX2R/NCWlqRQNhmERAkRVuSOF8nGsGHDXPHpp59+2hsRIv4gPvTVV191VsUcOXJ4o7EDbUcp5USXp6ZNm7oGE4gWEX9Qtuu1116zJk2auAYLQoQNiVCRbFBfsVu3bq6rR9myZXXjE3ELmfI0bSBRKRbiQwkPQJAMHTrUFbUvX768FSlSRM0kUgHUsyXZjCoHqnAgwoZUgkg2cPURH0qckuJDRTxTvHhx11GJTVe040OxI9BilCQV+uJjob3uuuskQFMJxCrTaKBdu3YuUVSIMCERKpIV4kOfe+4569y5s2s1J0S8UqNGDRdviSUqGhD3SfvcVq1auax3ko8qVKiguM9UCJZvKpNMnTrVGxEiHMgdL1KEsWPHutg0YtKUiSviFTZaxOTR0/uSSy7xRlMWlmyuLayf/EyCChZQlUdL3Wzfvt3eeust11yBlspChAFZQkWKQBtA+nB//fXX3ogQ8Qc1GitWrGh9+/ZNcVcoghOh8cknn1jv3r2dC7Zly5aWM2dOCVBhp59+uquAQC1b1l4hwoAsoSLFwEr0xhtvuM4ssZhFLERyQWIIArF+/freSPKCqBg3bpyNHz/ebr/9ditdurQ8DOKIULKJEBHWXW1ORKwjS6hIMbASNW7c2AlRxYeKeAZrKC0xp0+f7o0kD8R9fv/99/biiy+6uE9KQxH/JwEqjsaNN95oW7ZsscmTJ3sjQsQusoSKFIXpRc3CTZs22X333aebp4hbSFL64IMP7LHHHnOZ8ycD4nP58uU2YsQIZwW96667XMypLFsiKbDpp788zRXo8iVErCJLqEhR0qRJ4+KUuEHjThQiXjn//PPdXEeI7ty50xs9fij5RF/wLl26uFJL1H9ESEiAiqSCF4qEtQ4dOtiOHTu8USFiD1lCRSBQSJsSMo0aNXKJFELEIyynn3/+uWvxWbt2bW80aSBcJ06caKNGjbLq1avbTTfd5I7DRk6I44W5yFxauXKlq1IiRCwiS6gIBFoHNmjQwBVUVnyoiFcQjAhImjUQk5eUPT6udzowvf322y7u86WXXnKJRxSblwAVJwpz57bbbnPzi5J50W6qIMSRkAgVgZErVy5XVoZMYhZGIeKR0047zdVqpFTOn3/+6Y3+E0QBLTbff/99++KLL1y3sXr16lm2bNkkPkWyQAw+84q4fEKihIg15I4XgdO2bVvLnz+/26ULEa/MnTvXBg8ebE888cQ/enojTrt3724rVqxwSUfEfgqRUixevNiFibRo0cLFiwoRK8gSKgKnTp06rtvLokWLvBEh4o8CBQo4q+bAgQO9kYPiE9co/d2vuOIK1+9dAlSkNJdddpnb+Hfr1s0bESI2SPcSAUhCBAhWoQsvvNC55bkBE/smRDySL18+++qrryxt2rS2ceNG69q1q3PDN2zY0IlUlSwTQXHppZfajz/+6BLgCI1SyIeIBeSOF1Fj5MiRrrMHrQfJAhYiHlm9erW1atXKLr/8crv//vtVt1FEDYrYEx7y+uuvn3QtWyGSA7njRdSoUKGC242TGSxEvILVn1qf1PlU+1oRTYgHffbZZ+3DDz+0bdu2eaNCRA+JUBE1uCk3adLExchhERUiHmGjVbhwYcuTJ48LQdm3b5/3GyGChbmIJZ4wKBKV9u7d6/1GiOggESqiyhlnnGFVqlSx3r17a0EUcQsxodWqVXMZ8/Pnz/dGhYgO5cqVczHK06ZN80aEiA4SoSLqsCu/5ZZb7KOPPlL9UBG3UD/08ccfd/VD169f740KETwZM2a0hx9+2MXlE7MsRLSQCBUxwc0332y///67ff31196IEPFH9uzZrWLFita6dWt1sBFRhS52devWdZ261F9eRAtlx4uYgXae3Jzr16/vyokIEY8QdtKrVy/LkiWLVa5c2cVGCxEN2AgNGjTIdu/e7bp8paZyeXjdlixZYhMnTrRffvnlX7ubxRuEB51zzjmug+GNN94Y1QYGEqEipiBmjlqKL7/8sp1++uneqBDxR7NmzVzJpmLFinkjQkQH1tsbbrgh1XSxIzlw6NChNmnSJHcNXnnllS4/IbXA/7927VobNWqULVu2zBo3bmy5c+f2fhssKlYvYgo6zGAp+uabb3RzFnFNwYIFXYby1VdfbZkzZ/ZGhQgeuikRq0wXrzPPPNMbjV+GDRtmS5cudeL7oosusgwZMni/SR1gCeVzvuaaa1wJuU6dOrn7LXHrQaOYUBFTUEKE3TjuoXHjxiluTsQt3Pxwx5OQx3wXIlqcd955dt9991m7du3i3i2NBXDy5MnWoEEDFwqTmjtH8b+zASlbtqz16NHDGw0WiVARc7Arpb887hJlEYt4BksE1v/Ro0ebIqNENKGj11VXXWUDBw6M680/XrZbb73VxUSKgxQvXtx+/fVX71GwSISKmITMTWLmOnbs6BKWhIhHSAR58MEHXU/vOXPmeKNCBA9WQeIjf/vtN5syZYo3Gn+QhETYgfgL4mF37drlPQoWiVARs7AzJ2C8e/fu3ogQ8cepp55qjRo1so8//tgJACGiCdVJBg8e7BJW4pE9e/akuhjQY8EGJFrWb4lQEdNUrVrVfad+qNyVIl4hOaB69equrafiQ0U0IT6UcKg+ffpEzTqW0qTmONAjwfmI1jmRCBUxDdl6uIi6detm69at80aFiD9KlSplmTJlcjVEteES0aRo0aLOE0XWNOV8hEgpJEJFzEMh3aeffto6dOhg27dv90aFiD9q1arlCmjzJUQ0qVKliuukNGvWLG9EiORHIlTEPLgJ2JWTSUxdReqIChGP0KDhiSeecGWb1NNbRBNilR955BEXH7po0SJvVIjkRSJUhIYKFSq4kk3ff/+9NyJE/EFlCErIUDyc1oJCRAu8ULfffrv17t1bbnmRIkiEitCQMWNGe/jhh2348OG2Zs0ab1SI+IMbP/VD+/fv740IER3oLU6MaJcuXRSrLJIdiVARKigwTKLSW2+95eKVhIhX7rjjDhePN3v2bG9EiOhARx2KmU+bNs0bESJ5kAgVoSNfvnxud07/X7mIRLxCb2di8nDLb9682RsVInioUtKqVSu35kars46ITyRCRehImzat3X333bZw4UL76quvvFEh4o+cOXNa+fLl7YMPPojbmo0iHGTNmtVq1KhhH374YVz2l8ezNmbMGPfzzp077bPPPovr9qWxQrqXEvB+FiJUYBHFSkRXJdqOCRGPIESXLl3quikx14WIFhdccIFro0yYSOHChb3RcEHjE947nobEbNu2zcVglylTxonst99+22rWrOnqUzPO2MUXX2yTJ0+2L7/80rXa5b5DrkLPnj1tw4YN7vxMnDjRvQblBGlCMXbsWNcGlfOWI0cOd8+aPn26/fzzz5Y3b17Xuhd4zoQJE9z1PmPGDMuVK5f72/Tp01vmzJld58BNmzbZihUrnPGF1/efy2tedNFF7jVGjhxp+fPnd96TESNG2CWXXOKSeTk2XbBYQ45UmH7UqFFWqVIl71FwpImkskhjdjaUm9i6das3IsIMFzIXb4MGDZyFVIh4BCsNlpm77rrLsmfP7o0KETxY5JmLVCtBKIWNrl272vPPP+9EW2IQeO+//769+uqrTsxxT+nRo4cLQ7jppptcKMLrr79u7733nl133XW2ePFiy5Mnj9sgIvR++OEHFzs7cOBAa968ubVv395atGjhBOq1117rjvXss8+67xwbkYtV+fzzz7eZM2fap59+6o7L+UXEtm7d2ooVK2bvvvuu0yy5c+d2fe9LlCjhmrfQYY1KGhz/tttus6lTp1q5cuXcsfl7hC7vg++UfOPv3nnnHSeCEceHQ+gP7zloUp0IpeQJOwL1aP4LzsmgQYOsZMmSR5ycInZhMzVkyBCrXbu2q+sngoWYZG4quClljQ8e1i7aSyKISFoU4QdBhlXylltu8UaSF8Qk4S1JEaFvvPGGS4RFDM6dO9e1M50/f77dd9999tNPP7n1d+jQoXbVVVc5CyXHXLt2rbOYsnF87rnnXG1r4mgxmLBWdOzY0f1/WJP5W0QoY6zfvCaVX1q2bOmsprTwLViwoLs/Y6mk7z0gZps0aeLCBzjGFVdc4SyjvNdx48ZZ6dKlbfny5c4Cirjlb3nfWEzHjx/vBO3hSISKqOG7GurVq+eNiDCAu6dNmzZWrVo1twiKYOGGwE2Lm+X111/vjYqg4NZFW0lckpS0EuEH41Dbtm3tySefTLFNBdbM+vXrJ0mEYkGkW9+bb77pLI0Iwnbt2h0SoWxCqRjw8ssvuy5nPKamKsIPUUeZNeJLeT5NKHCpP/XUU27dRki+9tprToTSEGDBggV2zz33OOHYuXNnFzJAyBnufsoSIpxxvRcoUMD9jAhFGGMlffDBB53A5LlYS0ePHu2EJm53LKa8HyyqbJZ5f7EkQuW/TOUwiTHX33nnnd6ICAu4VXDNSoBGB+K1ACuJCJ7vvvvOVq1a5aw+Ivz4cZhYG6Nh1SY2E9c6YuyZZ55xohQLYsOGDZ37nvsk843ND+53rJ1YIF944QUjtYZYTDyJjPsCFHGIoGWtptYqlksEKf/f1Vdffch7RXMKQABfdtllbmPbuHFjJxZ5rRdffNG9B6zE5513nhOnmTJlcpsvYkYRtHzntfkb3PLEdyJYeR3Gce9TVWbLli3utWIFWUJTMUxGdkcPPfTQEXdGInZht0zcD7thgtZFsODaIvarWbNm/0hwECkP7k1cmMTrkbUtwg0WRK4noPJJSsb3H80Sejgk/+BiTy0eQllCRaAQa4JJn4BmCdBwweYBNyQWAwnQ4CGeCzcdrjMJ0ODBYkZCB65FCdD4YNKkSc4dXatWrZhJMC1VqpRC1AJAIjSVQnAy7gKy/kR4IL6IzQMWONwyIlhIhKF9IXG4ZMaK4Onbt6/LNg5riSDxd4gDpeQRXh2R+pAITYVQSoKgajLpVNYoPOCyGjBggKstR5zPkWq9iZQDAUrAP7FYxFbp/AcL5fWwmP3+++9WuXJlnf84gE01iT54FaixKVIfUiCpDIQMNd6w5Jx++uneqAgDc+bMcWU+qBWpG3DwEB9GMhJhEH6BaREchKFQjonEDrKARbhhU0FWOIk4JPiI1IlEaCqCOFASkbCAkl0nwoPftePxxx93fZxFsNB9hCLXlFlRHG7wEIdLHCjzn5I2Ivx8++23LsHsgQcecJndInUiEZqKoDwEFzulIkR4oB4lXTooo6UbcHQgE7t48eJK4osS1DakO482z/EBXgWy4clSF6kbidBUwrx581xN0EaNGikONET4cYjUAr3mmmu8UREUuAzpsEYWtl/LTwQHFQSpB0pjBkr3iPCDR45NBXGg2lQLqZFUAK3FOnTooJIyIYRuHLit6tatK5dVFKALCslgdE/JkCGDNyqCgiQkuscw/0kIE+GGTfXHH3/skivpky6ERGicQyISJWVq1qzpOi+I8LB+/XpnBX3ssce8EREkJMLQ95k4UPXlDx7qgVKOjPOvvvDxAVVZuK6qVKnijQQPm3m/B7s4CJuDaCERGscwsWg7RhZ8yZIllVEdIlgksV5XrVrVtVwTwbJ3717r1q2bK8WE1UbXTrCweSYRjxhQQlF0/sMPLTHxKtCZJ5peBdbT5cuXe48E7NixI2qfiURoHLNs2TIXz0ZJE7lywwNxcCNGjHB181SQO3g4/5MnT3YbgZtvvtkbFUHy448/ulCIO+64wxsRYYbYarwK5cuXj3qXqxtuuMF5mBBe4iC0IY7W5yIRGqdQUoZ6oC1btlRJmZAxc+ZMl0TWsGFDbR6iAFYSOoo9/PDDigONAmvXrnWZ04ShqBxZ+GFTR0hYkSJF7JZbbvFGowdhaQULFnTJUcJcmSws1A899JA3EiwSoXFK+/btnQuesiYiPKxevdp69OhhDz74oKVLl84bFUFBIgzlsBo3bqxmDlFg165drpYxmfBqSxsfzJgxw3nlypYt641EH8rd4el466237JdffnGdmxDLqQVC9TBU0Xzjo48+cjkj2bNn934bLGkSTnzqOfOpANwe9OFdtGiRMnpDBosim4dixYqpp38UIA6UDcC5554rN3AU4MY4ZMgQJ0Rr166tTVgcwKaaJgNPPvmknX322d5obMD1/tVXX7kKJBs3bnTrb2qJPeb/xEOaM2fOqOcdSITGGQsWLHC9eNu2bavWgiGCzcOnn37qsrApRyOCZ9CgQc4VTwiLCB7icLHMvP76696ICDNUN3j11VetRo0aapAijorc8XEErkR6K3MTVSxhuFi4cKGLzalevbo3IoKEc//DDz9YvXr1vBERJLSl9eNwRXzApo7ESmJBhTgaEqFxAq4FeluTzauSMuECAUQ5IPpiK4kseIiNwmVINzHVowwe3KCcfzZgF110kTcqwgrO1SlTprgEM8Ja1KFP/BuaHXEAFz2xLbh0FUsYLvjMyNIsXbq0BFAU4NohE5uWqDly5PBGRVBw/ocOHepi0goUKOCNijBDh76ePXu60oCqbiCOhURoHEB2H8lITZs2VWeXkEHtvNy5c1uFChW8EREk1AvEi1CrVi1ZbKLA999/70JRsEIrhCj80OOfLleU14pWtrUIF1p1Q86mTZtcEhI1JeXKDRe0sJszZ45VrFjRGxFBQgUJmjkgQEXwEIZCDDtVPBQ+FB/069fPhVTQ5UqIpCARGmJobTd48GArV66c+sKHjA0bNljfvn2tefPmdsYZZ3ijIiioC4jLkHqsCoMIHuJAmf/UA73wwgu9URFmpk+f7uKrtakTx4NEaIhBgFIGo3Llyt6ICAPUQaSMFp+bbsDBgwDCZUgzh/z583ujIiioB0o5MuY+LRRF+NmyZYsrek55OXnkxPEgERpSVq5cabNmzbI6dep4IyIsjBw50lmuixcv7o2IIPn2229d/OFtt93mjYggoU81JZnoWiPCD14FNtXNmjWzbNmyeaNCJA2J0BBCHCglTaipF2tdKMTRIROYRIzFixe7NmlKhAmeefPmuUoS9EnW+Q8emgH06tXLHn30UcuUKZM3KsIKIWFUl8iTJ4/rx67YXnG8aBUOGQiZ/v37u9aOcuWGC9zAuCGJmZLLKngoh0Ut3SpVqthZZ53ljYqgYO1CgNJDXHG48cHcuXOdZfuuu+6SABUnhERoyBgxYoS72GVJCxfE7rZu3dqaNGmiJLIoQBkmPw5XLQSjAw0ZrrzySrv11lu9ERFm1q9f75LLcMOrHqg4UaRiQgT19HAlklEqwsWwYcNcFjxt7ETw0JecItokI4ng+fHHH23BggWukocIP7t377Z3333XWUDPP/98b1SI40ciNCRgSaOwOfVAFQcaLmbPnm3Lli2z+vXreyMiSJYuXWpff/21i0M85ZRTvFERFCQhYTFr1aqVnX766d6oCCtUNxgzZoyrBUqnMSFOBonQEOCXlKElJ+4sER7++OMPa9++vd1///2qBxoF6OBCEh9xuFmzZvVGRVD4mdNkwp933nneqAgz3333nU2dOtXq1aunLlfipJEIDQFTpkyxDBkyWJkyZbwREQZwWXXq1MlZQOkiIoKFRJgePXq4GMQrrrjCGxVBQhjK5Zdfbtdee603IsIMcaBjx461Rx55xBsR4uSQCI1xyD7ElUhnl3Tp0nmjItbBZUUSGXXzrr/+emWOBgyZ8F9++aXzIlAPVEl8wcIGAIsZJZlq1Kih8x8HcC116NDBqlatajly5PBGhTg5tDLEMCzkn3zyid1xxx125plneqMiDNCXnKLouIF1Aw6etWvXHupLfuqpp3qjIiiIYScb/p577lE90DiAexGbakIqChUq5I0KcfLo7hijsOt8//33rVq1alakSBFvVISBjRs3ur7kLVu21A04ChCH27lzZ3vyyScVhxsFduzY4dYummnkzJnTGxVhZsaMGa7RAyXmFAcqkhOJ0BiFUkws5iVKlPBGRBjADd+2bVvnAlYcaHSgIUCBAgXssssu80ZEkAwaNMhV8KCDjgg/q1evdk0G8CrIqyOSG82oGGTJkiUu+5CSMtp1hgfiEL/44gsXL6V6lMGDy/Cbb75xN8pKlSp5oyJIqAe6Zs0aVw1ChB+aPPTr18/VA9WmWqQEEqExhl9Spnbt2pYlSxZvVIQBbsCjR4+2Ro0aqR5lFFi5cqV1797d9YVXB5fgIQyCtatu3bqqBxoH4NUhrpfkyptvvtkbFSJ5kQiNIbCkffbZZ1a+fHm5EkPGpk2bbOjQofb44497IyJItm3b5q4dzr/icINn165d9tFHH1njxo3tggsu8EZFmKFD36+//uqsoEKkFBKhMQICdOLEie572bJlFXsTInBZffzxxy4O9NJLL/VGRVDs27fPxazREpUuLiqHFSxYzKgHmj17ditWrJjOfxyA+MSrwKYuc+bM3qgQyY+UTozw22+/2YABA1xhc5WUCRfjx493zQSoByqCZ9q0aa41pPqSRwd6wk+fPt3uvvtuCdA4gRbRpUuXtnPPPdcbESJlkAiNAbZs2eIsafRWVkmZcEEzAYpy00FEcaDBw+ZtyJAhzmKTMWNGb1QExYYNG5wVWuXI4gcsoHny5HFhYUKkNBKhMUCXLl1cOZO8efN6IyIM0MKOz04F0aPD1q1b7c0333SJSEriCx7CUKgHSiUCXPEi/MyePdvmzJljFSpU8EaESFkkQqMIJWXoC48FrWLFit6oCAPEIRI+cfvtt1vu3Lm9UREUflvUG264wfUmF8FC7DphKJdccoldd9113qgIMzTZ6N27tz3xxBPyyInAkAiNIsuWLbMePXq4kj4qKRMe2DywWFPDVXGI0WHs2LG2YsUK1xZVcYjBQwwoiZRYoRWGEn6obvDBBx+4FtGqbiCCRCI0SuBKpLVjs2bNFMsWMpYvX+6SMWrWrOmNiCAhDpSi9CTxieDBYjZq1CgXBy3ig5EjR8qqLaKCRGgUwJVL9uE111xj+fPnlyUnRKxdu9Y6dOhgzZs3VxxiFKAeqF8QXXGIwUMcaKdOnVzMIKJFhBu8Oli1Fy9e7DbV6dKl834jRDBIhEaBb7/91hU3v/XWW70RERb69OnjWnKed9553ogIksGDB7tGDkriiw5jxoxx3ZCoByrCD254kivp0Kd6oCIaSIQGzKpVq5zr47HHHpMbPmT079/fzj77bKtatao3IoJkwoQJtnnzZqtXr54sNlGAtrQ//PCDypHFCX/++aerbtCkSRPLlSuXNypEsEiEBgi9ld955x178MEH7ayzzvJGRRggBpSi6FWqVFH4RBQgiY/N2z333KPzHwWIw6UtKuXISMgT4Yc2w2TBFylSRNeUiBoSoQFBSZnhw4fbjTfeqJIyIYPNAzG8jz76qGXNmtUbFUFBHCJJfHXq1LHzzz/fGxVB4Zcjq1y5suXMmdMbFWGGWqAkWOJVECKaSIQGBNmka9asca3tRHjYvXu3tWvXzsXvqh5o8CCA2rdvb4UKFXKJfCJYqAfKBoA40LJly3qjIsywqWZNQ4CqHqiINhKhAYD4nDp1qsvoFeGCOETiQG+66SZvRAQJMYg7duxQM4cosXTpUluyZIlVr17dGxFhhk11586d7YEHHlA9UBETSISmMOw6KSlDLJUu+vBA6ZKffvrJZs6c6dzASoQJHsrGEAfatGlTJcJEATbPZE7Tl//MM8/0RkVY8buMnXPOOXb99ddb2rS6/Yvoo1mYwgwaNMiuvPJKu/TSS70REQYQoR999JHVqFFDN+Ao0bVrVytfvryzRIvg6dWrl4thVzmy+GDhwoWuPCDlmCRARaygmZiC0Ft5+/btdv/99+uiDxHUznv33Xed9fqKK67wRkVQYLHp2LGj3Xzzza43vAge6uFeeOGFLhlJhB+6XLGpaNGihWXKlMkbFSL6SBmlEJSUGT16tHpbhxD6kmMJpYWdPrvgoRQW9XRLlSql8x8F5s2b57roVKpUSec/DqC6RNu2be22226ziy++2BsVIjaQCE0BuOi7d+/usg/lygoXuKxmz57tCjiL4PGbOWCxUTOH4Pn9999dOTLa0qqWcfihusGXX37pxKe8CiIWkQhNZhCglL8oWrSoKysjwgN9yT/44AOXiKQbcPCQBc+1Qw9rkidEsBCGwvmnEkGOHDm8URFmSKyk1Wrjxo2V3CdiEonQZAY3Fot5hQoVvBERBtg8kAhDKRq1sIsOtEW99tpr7eqrr/ZGRJCMGzfOVfCQxSw+2LRpk2uQQptVIWIVidBkZNGiRS6eEFeuWtuFB1xWJJFhKSAZRklkwcL5J2t3w4YNLhFG5z9YiH+eNWuW66JDW1SVIws/bKo//vhjFweaJ08eb1SI2EOrfTLyySefOFeWSsqECz+JjCoG2jwEz+bNm50V+sEHH1QcaBSgK1WnTp1cEqU66MQHWLVPPfVUVw9UiFhGIjQZYBHv0KGDa2uniz5ckIhBElnLli1da0IRLMThUo6JRBj15Q+enTt3Wps2bdwGQBaz+ACL9vfff2+PPvqo4kBFzCMRmgzQknPt2rV2yy23qKRJyKAvefHixe2SSy7xRkSQkIlNDO5VV12laycKjBo1yln/icXV+Q8/69ats08//dS15cQSKkSsIxF6kvz6668uDrRZs2aWIUMGb1TEOsTBff311879WKZMGW9UBAXnn77wWEKrVavmjYogWbBggfvCCirCD00eBgwY4ELCcufO7Y0KEdtIhJ4ElJShpA+xVCopEy7mz59vvXv3dn2xtXkIHjwHuOEbNWpkmTNn9kZFUPjlyOrWratyZHEAmzo6IrGWlStXzhsVIvaRCD0JaG1XokQJ50oU4WHLli3OYvDYY495IyJI2LyRiPTwww+rL38U2LNnj3Xp0sX1EFcHnfiA5Eqs2jVq1PBGhAgHEqEngF9ShqSW22+/XSVlQgRJZN26dXO1EPPly6c4uIDBZThw4ECXBFOkSBGd/4Dh/BM+hPX5xhtv1NoVB+BV6Ny5s/PqZMmSxRsVIhxoBToBqGdI8HfDhg1VUiZkfPXVV7Z7925XD1QEDx1cqKd7xx13eCMiSJYsWWITJkywe++9V/VA4wTc8HjkaDQgRNiQCD1OiKWiCDC9reVKDBfcgOmjTOkSxYEGz/r1650VFIvNaaed5o2KoKAeq98XXuXI4gO6jJ177rlWpUoVb0SIcCERepz06NHDlfNRSZlwQQs7yjFRukSJMMHz559/2jvvvOPiEM877zxvVAQFbnj6wt90003KnI4Tfv75Z1ceEK+CwipEWNHMTSJkH86YMcO2b99ud911lzcqwgA34CFDhlipUqUsb9683qgICmKox4wZYwUKFLCCBQt6oyIoOP+TJ092ndyoZSzCzx9//OGabCgOVIQdidAksnr1aueGb9q0qWXKlMkbFWFg8ODBzhJXtWpVb0QECXG4dHGpV6+eLDZRYPbs2e4aoBqECpiHn127djmrdvny5WXVFqFHd4QkgPWTXWfjxo0VSxUy2DxMnz7d7rnnHm9EBAlxoBMnTnRhECJ4qOAxdOhQVw5LxAcklmHVprqBEGFHIvQY+F0oLrvsMrvmmmsUBxoiiAPFYkAiEsH7IljoS04c7t133205c+b0RkVQUI6MKh5Ugrjyyiu9URFWCAnDozBr1iyrU6eOqhuIuEAi9BgQB/rLL79Y5cqVvRERFvr162eFCxdWQe4oMXz4cLvwwgvVzCFKYDEjHrRkyZLeiAgzGEQ6dOjgNnWqzCLiBYnQf2HdunU2aNAglZQJISNHjnSWgpo1a8p6HQVo5kAXl4ceesjSp0/vjYqgIHN6ypQpzgugONDwQxxo27ZtXZvVyy+/3BsVIvxIhB4F4kDffvtt5/aQKzdc+AW5q1WrpkSYKLBq1SoXwnLffffJZRgFNm7c6Dro1K9fX5vnOIEuV1i1KUqvTbWIJ3SHPgJ+SZlChQq5sjIiPBCH+Nlnn1mjRo20eYgCuAwpiE4Pa4VBBA9rF96bsmXLutaoIvzQYeynn35yHfqEiDckQo8A2by4s3B9aNcZHvbs2XOoILcSMYKHRBjKmNHMgd78IlhIXCEOmo1ApUqVvFERZujQhxue8maqByriEYnQw6CkDK0duehFuCAGDvdvmTJlvBERJPPmzbO1a9eqhWCUIAyCzOlatWp5IyLM7N2717p27erCinLkyOGNChFfSIQmgoLmlJShpqQu+nCB5frrr7+2Bg0aKBEmCqxcudL1sX7kkUcUhxgFiAP98MMPrVmzZq6GpAg3hFV88cUXbi2j05ti20W8opmdCIo6X3TRRZYvXz5vRIQFSpfceeedljVrVm9EBAn1KLFAZ8uWzRsRQdK7d2+79tprXUksEX6WLl1qo0ePdiFhSu4T8YxEqAeuXNxZDz74oC76EOHHgeKyUl/y4MFi061bN5fEh8VGBA+b58yZM7trQIQfulz17NnTWbXVoU/EOxKhCfz6668uo/Tee++VAA0ZkyZNcos2yUhKIgsesnbnz5/v+ljLZRg8ixcvdtcAXgCd//DDpo6QMEoxqbqBSA2k+lWLTNIePXq4oua44kV4WL58uYsDpSC3Ng/BQxJf3759rVWrVpYpUyZvVAQFtYyxQtMXXnGg4YfqBt98842zfpYuXdobFSK+SdUilJIynTp1ch0oihcv7o2KMLBjxw57//33XTMB3YCDh3qsH3zwgVWvXt3OO+88b1QExe7du10iEmIlb9683qgIM3PnznWbuubNm1uGDBm8USHim1QtQmfPnm0bNmxQSZmQgfWamKlbb71VN+AoMWzYMLviiivsmmuu8UZEkEyePNlVIVAcbnywZcsWGzx4sDVt2tQbESJ1kGpF6IoVK9xFjytLu87wQMwULnjKaZUrV05xcAGDy/CHH35w2bskwigMIlg4/8Tg0pufWsYqRxZ+8MgRVkGDh6uuusobFSJ1kGrv4F26dHGWNJWUCRdUMMBlRRWDU0891RsVQfHHH39Yx44dXT1WMrJF8OCGpy2qOujEB1999ZXt2rXLJVcKkdpIdSIUVy5dKIoVK6aLPmQggOgLT+mSM8880xsVQUEcbufOna1JkyZ2/vnne6MiKIgDJQ6XZhr58+f3RkWYoboBIvSxxx6TR06kStJE8O8EAHGXOXPm9B5FD9y5uOLJhI9VSxpiq3HjxoGKZDLNn3zyyZhOMiEZhozsXLlyeSPRg/fRunXrmJjTFIr/7rvv7JRTTvFGUgZE0Jo1a1xv+JQE92SRIkWc2A0DI0aMsAEDBqS4ZZjzwnUaRBw0Re+fe+4571E46dWrl02cODGmxR3l5ah1HAubOtZX1hIhgiQwEUo7P+qfiWMzZswYtzDdcccd3kjKQ9vL8ePHux25ODZt27a1ihUrusoK0ebVV1+1hx56yLJnz+6NhBtuzO+++669/vrr3khsg2fl6quvdt6VeCEe1uv33nvPqlatqnqbSUT3aBENlNUhhBBCCCECRyJUCCGESCLr1q2zsWPHHvqaNm2a9xshxPEiESqEEEIkkalTp7o4YDLa/dhwwqcQp6tXr3Y1P4GOVlTz8B9TVo7HjBP3v3nzZjfO440bN7p8BUJReA7P5ff8zBfP57X8vxciXpAIFUIIIY4DEueINyUunDabCxYscHU+iWWmegdCsUWLFvbaa6+5BLutW7e62G0e//e//7U33njD6tev75735ptvus5vy5Ytcwmp//vf/9xzvvjiC7v//vvtnXfecUlWZcuWdYL3+eefdwJYiHhAIlQIIYQ4SegeRjIdopRaxlgz27Rp4zLfu3fv7iyl1HhFnALthqdPn24rV650Gfw0ICDBjTJcv/76qytcj7Al6fDiiy+2m2++2YlcLKILFy50xxAi7MSECKV15qxZsw59UYZExAe4mBJ/tnxRq1UIIeIJrJO45RGfNEHhZ8b4Qpiy7jFGvV1AtA4cONAKFCjgWrAiRPkdpdB47uEl1zju3r173ZcaRYh4ISZEaO/eva1Hjx42Y8YM54J45ZVXnHjhYuOi9UWLfxEf/pjnUkMv8TiPqT7Fd/85/vH8Y/iP+R34z+d74mMkfh+J/95/fPjzEr+2P+6/x8SPUwP8z7ijiKOiluWjjz5q27Ztc+fA/+Kc8MW5O/wxf8+54mfG/M/R/9l/TuLPhsc8x/+Z5wohRHKQJk2av7UL9lvX4pKnzNE555xjt912m6sh3LBhQ7cW1axZ01lEH3jgAevUqZP7+8suu8zmzJljxYsXd4KzRIkSLqYUN33BggVdPeTEr0O7XDrFIV5joT6xEMlCwg06EB5++GHvp3/Stm3byPjx493PCRdhpHHjxpHhw4dHEi7ESN26dSNPPvlkZNOmTe7n2rVrR5o3bx5JEDKRxx57LFKjRo3I22+/HalXr557jYSdZKRRo0buuYsWLYpUr149ctddd7nXaNOmTeTqq6+OJFzIkVdffTVSsmTJyD333BN54403IgmCJZKwWEQSFpHIqlWrIg899FCkVatWkblz50YSFpBIpUqVIu3bt49Urlw5Uq5cucjkyZPdc/ldnTp1IosXL47kz5/fvY+KFStGli5dGmnQoEFk48aNkQsvvDDy5ZdfuvfEayQsLpEEse3+3yMxevToyNChQ71HwZCwgEY++OAD71HykbCrj9x7772RnTt3up8TFuHIsmXL3LlPWGwjFSpUiCxcuDDSt2/fSNWqVd3jWbNmuflQrVo19/nwu4SFPbJ+/Xp3HvmZeZKwWXGfP5/JuHHj3NzguF26dIkUKFDAfRYc7/fff/feTfLx/vvvu/cdC3Ae1qxZ4z06yB9//BHp3r27m/O//PKLNxpd1q1b566bMWPGuPlwNDZv3hz5z3/+4z2KfT799NPI9OnTvUd/sXXrVrfu8MVaFG1YQydMmOCure3bt3ujR+bf1uuw0Lp168iSJUu8RynLjz/+6O4Z3EdSgmHDhkVefPFF71HKEA+fuQgfMR0TWrRoUfv4449dfAwdSWjV+Mknn7hMwj59+jhLGLE25cuXd89P+H+cNZVMQhg5cqTrD9+zZ09XAL5WrVouxubll1+2rFmzut/RISLhxujidXxoo+ZnNH700UeWIHrd69D1iV1qgqhyO1HCCHh/uFpmzpzpujARE0TQOhZdrHDsehkHrHXEBMVCx59ow/l/9tlnXUF+PkvcUpxrLAY8bteunbOOE8CfMWNGVxSez4Uvujr99ttvlrBBcOeXFoa4vLCy8hklbBhcxxcSAa677jpLEKjeq6YeiC/DZVe4cGFXWJ9uKJSSoSEBFhtcfnznPHLN/PTTT/b999/blClTnKV63rx5zoIDXGdYbDgmf88X16R/jRwOXWp4LTqTcV0liB+XdMH1i6UHtyLXBs/jWLxmvEGWM1YxrF0Usce7w3klno//mbnLesVnwFrBOHPYP8cJotV9ZngQeJywqXWhLPzMF+c/8ZqVmG+++cYmTZrkulv52dTEELJO+VnZWPNY9zhWgjD1/lKcKFdeeaVLOkqfPr03kryULl3aHn/8ce+REPFDTItQXBQsltwEcUvg9uA7Y9zE/DHib+CKK65wwhO3BvB3LAo8hwWfr8TQtpNjMO67VIDyG4ghQDjyPnhulixZ3Bgw7r8fvvPYfy1u3sT3/PLLL+5G4IvktWvXWsKO2apVq+Yep2Y4b5wv//zyGfDYH/PPJ8KFeKkyZcrYqFGj3I2XzQmfLfOA8+2f/8T4x+KzQMSmNipUqOCydxGinBuSH9gwISZffPFFJwZJgCDbFsHJDZSNXr9+/ax///4uocIvBcO1RgYvGb5k6iJsEC902UoMnwkbvq+//todB+GF0GGDxsaCMYTUl19+6f6e+DdeF5Eab9ATHBGJW5aN71NPPeXmIlnPnINnnnnGrQXdunVzc5rPglh4NlVsCLp06eIEKlnRnD/OJcKWLkCIe8Y4z4nhGmLtGj58uLtWOLeshxy3Q4cOrqYlmzhen8QZzj+bPNYlcXKw3uNuZ01KCdhA4OYXIt6IaRHKjp42kljB7rzzTnezatq0qZ111ll2zz33uF19o0aN3AIOWH2wAGCJhNtvv90tvA0aNHBWT1+s+rBgc7xy5crZueee640ePA4xOYDVE6scpTK4gftceumlTiBh7cCygLUDaw83Gb7feOON7uaP5dSHm3Tix6kZPkuEDYKkRo0aTjDxWRMfzGd7991328MPP+w+X4Q8GwBEEAs9wgrrMvOCv5k9e/Y/+uxzo+azwAIUZA/+WALLGlZgbl7Ex5J561swEURYPpnDWI65eXKdMN/5TAARw2fE+QesMblz53Zladg4dOzY0ZWLIcMXEF2ImyeeeMKJG2LXfK8E1k9+B4gfxBVW6xw5crjjxhucH7KffVHCuee8Yw2lhM/111/vrJ0tW7Z0Vk42Spw/rPqlSpVyf8c6h9eE888ac+2117p1h03tGWec4a4V+rtjUQZEKBsI4g4p84P45Zrxf8cmgM+dzwIvA6/D8dmwCCFENIiJ3vHcLLFmsXAj1HjMwoqb7umnn3aiA0skizS/8zMJeYxbkd/7Fi8W2EyZMrnn8Z0bHr9jJ8nx+T3Pw/XLv37fffe5BR2rGY85Jj/zfjg2z+XGwe8QQtzM+ZnX5/ccj5+52eIOxvWJq5n36L8Xnscx+c4478f/f49EPPWO51z55wH4mc+GZKW3337bbQz4/PjcuWFynnjM3/GYc8T5RdDzHN/qyeeChY7Pl7nB8RlnjJs9nwXWPIQAv0tuCwWfcyz3jsfKxjxEZCAuES/MPwQMAhGL2ltvveXON2KfMBIEP3MdlzDnEIGD1RMhi1Wf0BXmB1Y55gobAsQVooowGT4rEicQQGwy+Nyw6CGyChUq5CxubPqY/8yBW265xdVHxEqHGPaJh97x/K98Jn64zgsvvOA2V5zz999/331mbH75XLgGsJQiylmLCCVBTPKdOU/2NGsnwhELKl9YWrFus3njWmI+EqaCqMWLw2fP9YBQ5fzzmHPMOafcD5ZwXp/3yLk+3Mr2b+t1WDiZ3vFsEAhTAc4Xgp5NG1ZlSiVxPlmnuaY4r/yea8U3XgDXCN4Ens/5HTRokPMA4dWZP3++u6ZYn9gEEHaB8YJ7DGsKGzvWQI7H/OGaZB7w2A/fAI7FXGBzCRhbmAcnQjx85iJ8xIQlFEHhCzIuUkQDFzU3LC52RAYg4HjM8xEVPM//PcIFgcIiznce8xwuYJ7jH5+/4TVwiWOB43fciME/JsfjGP5zsUj4rnh+x80V+M7f8zwWGW6aF1xwgXtt/o7X5jvvm9fnMcdN/P/GO5xT/7Pwf2bR5ibM4s45YZzzwrnk8+Oc+Y/5PeeKc8Z55pz7nwufBc/xj8/nyPNY2LHiIcr836U2EC+IcG4sWOUrV67sbqDDhg1z5wURiABCoI4ePdr9DZZKBCdWfz4brKCImJIlS7oYaM4j45xnrgdc73yOFNFmjnPuW7VqZS+99JITX9wMeQ/E/l5yySVOiCEM/OxgwBLq/xxP4FlhI4RgRBhiFcb6yZrzn//8x10DWOgJU0C0I1QQ8lgr8ewgeDg3bCaI2UTws0HGA+CvJXxuWKKxkPJ5cB5ZMz/77DO30eDaYE3iWuD8E9s+dOhQ9xkgcPg8eQ2uNfF3EHrESzPvieNHFGK4YAPFJgxhTygF1wPnG88LGwcfHiMsEYvEu7NRIcyCUAiOw3XFdcQ1h7eG73wOfF5s1AnRYA6wxhE+478um0Q2g3x2eCwIr+Ax7xPP4eEhMkLEPAmLUSDEa+bd/v37D30lF/GUHR+vxHp2/PGQcNNzlQV+/fVXbyS6xEt2/PGSIFq9nyKu8gdVJKJFas+OpxIK6zDUqlXLVThIEI/uMVU7xo4d66qd7Nu3z1VBmTlzZqRo0aLuvPG8hE1gZPbs2a4CSMJmLXLfffe5iimsGXfeeaerAMMYVVcSBKtbe6nqkjdvXncdUu2D1yTrvlChQu64HH/w4MHu9ThOwgYwMmrUqEi7du0iTZo0iZQoUSIyadIk9x5PhHi9R4vYJv5MEAFD9wssHiR3pEaoVICrKKzgdib0gy9c+6kRrJhYZrDqiOhB7LkP1lDib0VswLWBlZH4XMIc8NgcDuE5uLOxdmL9xBtBqATrIxZs7hFYULGSY8nGsonHD48CVlOs2oe70nkuOQ5UdCE8hucnBu8D74k4YCW8ijASOhGKmwLBgLuEixo3CbGjXPhc9MTV8DtcE7g1fHHIhYprhLgdfo9rEheHXyCfTFQeE6vDa3Bcxjgm8Z7EX7EIEQPEQpKww3ZfxMjhYsNFxnPjBdw+xCwRl8k54rvv6uG8cB4Yx71LggqfAS5exjmf/I7HJA1xLlmIiY/i/HLegPPI58M4i7D/uVD6ys/Y5TURuri3EIwUbOY7x+A9cmziZ30ofcNxOEZiKJRP0hrHJX6KucGxce1zHF4DmDf8vV+2hvfF3/F/CSFSB4hGwnqAWExiL4ndRQgSO836RngFbvF8+fI5UUkcKeEv/C3hFYSd4Ibn/kBuA1ULWC8JiyAkhpAJ7lf0iyeci9AVKn+QhMZrI3w5FrkBhHVwj2M95bmEZ7BJ4V5FqAV/h0veDxsTIizERGLS8YCIJH6GeBm6UTz55JNWu3ZtJzII+icWjVg3LDvsNImz6tGjh4ubIb4GAcUFi9Cg7hp/Q1IBIorgfuLZ2I0SzM5rkDTBgoMYIQDcj/HKmzevW4BIAiDGh3gsLBnJEesZC4lJLHhDhgxxgfBkmXfv3t2dSz5DFs26deu6BZa4JoQgcYFkOXN+Ee2cK84N555ziegjcYOSPZw3Sv2wGDP9SGYZPHiwW+QRoSTPYG3gcyXGjext3h+fCxYiEjuobECsIjGIlKrhdzyHzxzLAUKTWDtuDsQ58r/xurwPavqRlMFxOMfcHIj7Zd6w6JOoQVwkCz0lbrB6UO8RawPHgFhPTAoz8ZCYFHZSe2JSakSJSSIahM4Syu4QscPuE4HEbpDkCnaeiDeSMMj8xHKFe5UbGgkRiBwECYIKqybihyQXEgZ4PtY1LKFY2hCSlIQ6Er5Y8iE4HHEbj2AhZOfuuwUpQM659C3QiHkWLrI7EY4IPcS8vzHAgkiwPSIzcekfkoXYNPgJEbicSJDAGklWNQL0cLDEUm6LjGHAeorLi82AD69Nsgevz2fKF5AwgKgk0Yb5wbF8SATh9ZgvCGZ+z/+L8GWz4/8OEY6AFUIIIUTyEPqYUKxuCBeEJfExiAVEqV9yhCxULG4UjUa4YNWkVicCi5IZWFbvuuuuQxnvV1111SH375HA6sbzfRBelF6JRzg/iHEsgkCZHc4lwg93EefTD3PgZyxxuLexQnL++AwQ+5xjnufHOyH8+ZyoUwi8DhsErJNHy5T+/PPPnZD0XWSIY+rAJrb+cXxeF1c84hGxC2QJ4+LChe93VyLGCmszohYBzZygTA7xkT78DmsnFlB+588RIUR8wwaWcKEwg7HAbxKBMUaIWCSUIhSx6QsaxA+uO8QL4pC4GLrAUCoJSyh1EhFDWNoQI4hI4nqIo6GmGgKJsiWIGSxduG4QJFjd+Dtc9rheiUNFlCA4EWEIM76qV6/u3Lu+hS5e4BxTUxCBhouax7irOSecOyzPiE/KlxDviUsb1zYiFYFH7BKfByKUwuSIdWpCcizc5RwPMYplm9gqLKO46rGKYiHFyomVlbImlEohJguXP89H6PLeEIgcz7eoImoRnySL0aKVOQCEbbAY++1acdnj6sXiSVIZ7nrmEH/LPPKPyWePOz7x74QQ4QWjBYIMIwTxmHhF/PhxNs94wyiZRCgSG1/iPIn1515CsxI2uTyHv+V3bGzxlBBGhDHEPw5rFvcTwpOIU+c1+T3H8TfmbIx5P3zx93jjeA73NI7PmuODIOY4lOlKDELTj7Hn/+A9+scgBI2fCZnCu8f/yu95b7wHIWKB0MWEJgYRhFAgAJyYvpSC16FWGwk4QRCmYvUsagi8I8XvsQhjlUbEIR5PBOK6qIMYa12PFBOacigmNPrEa0wo4VTML4QlIpPuXghFQngwPhA61LlzZyfU8JhgxCCEi9Ac/o51ks0siUZsphGLnCsMH6xTxKhjmOB3PCb3ANHK+scGnjlCW2k2xtddd53bFPNarPm8PsKUTTa5DWzsSTSiRSvXA8/l/bDJRlhSJ5ZNMussm3+af/A6iFm8RNyvihcv7oQz8fz8j4CgZc0+3LMTD5+5CB+hFqHxSphEaGol1kQoVtqU3IgFCTdVrENhEqEIGbww8QKeDMRYmDmaCCVpEg8L1kLEIF298IrRb58SSHi2iPPH+EBSIhU9sI4i5ChQ71flQHj6SatUEkEgElLEfMBrhOeH3yH6EIaEAiFME4tQrJNYOPlOHD2ilqRQLKbEqCNCMYDwXI5N0wk8SwhVvHI8B68SnjqSPfE+Ed7Ea7EpxevHeUB0I2pph4xwJbH08DAy3aNFNJAIjUEkQmOfWBKhuOH8ElPxAlYjP+Qm1kFgYM2KJ9jQhD3E6GgilM0NXaSwhBK2Q9chLKBURkGEIvwQbVxTzEMsojyHEkp43RB3WCHZ/BHehZhF1CIwcY+TsIn1kTWckCMEJqL+SCIUUct7QQgTf09FDx738zpn8V74P/jOesPfUVcU4UmsOsKT94cIRpDSQhfRS4w9IU50K0PEYhEdMGCAq+zCc3nsJ5z66B4tooFEaAwiERr7xJIIFUL8kyOJUKydWBIRctyT+D2WUX4mtIvycwg7LJ+swcT/IwZxq5M7QGwlFUKIJcf1ze0TFzz3NtzpCFxc49QbJmcASyjJjvv27XMhG8TPk1yJBZWKIbwOJf4oas96gjBGgHJ8jsVmgPhRxCQeAqyXWDuJWacaCH/Le+C5CFoEJn+DmKX8IPGpCFj+ByzbVCxBYFOezk849dE9WkQDidAYRCI09pEIFSK2OZIITSpU38AdT6z14WD5RqxSF/pErPXcconPfPjhh53bPlbQPVpEA6X7CiGEEImgKsh9993nPfo7lP0jcYhKHicKrn9iSIVI7UiECiGEEIkgczxxzeDEkASIED3Rkm10XSNm0y8tJ0RqJjB3PPEw1JYUx4bC+wSgB+2O5zXpQiWODYkI1OGTO16I2AR3POWN4qVqREpDhQey7IUIksBEqBBCCCGEED5yxwshhBBCiMCRCBVCCCGEEIEjESqEEEIIIQJHIlQIIYQQQgSORKgQQgghhAgciVAhhBBCCBE4EqFCCCGEECJwJEKFEEIIIUTgSIQKIYQQQojAkQgVQgghhBCBIxEqhBBCCCECRyJUCCGEEEIEjkSoEEIIIYQIHIlQIYQQQggROBKhQgghhBAicCRChRAiNbJvh21a/Yst/W27NyCEEMGSJpKA97MQIqXZN8/6vtrJho8faP1n/GlX3dXAyl96iu3btct27dhgv+04z25+oJk1vjW3ZfD+JLWyY+kI6zjhDGvS6BbL7I0lLwds9dj37b3+Y2zsjAxWunwBO91tyyO2c9Fo+2z4AjvtmppW6/aq1vA/d1v+9O6P4oP9S23wa6/Zux0/t9XVRtvC9mVT/XwTQgSPRKgQUWDXkLp2ca3F1mrOFHvm8nTeaILw+vFNq1SmnWV+/Qsb2jSfxZPuSRpb7JtOb9uwX3bb6q+626Cz/2erRje0s73fpgj7frJPP9tm9z144yEhtu+HF6xoiQ5WsO9q63FXRm803thtXzS90hrax/bzR7fGqQjdZz/3etY+WF3JXn2ilJ21qJc98/5yK//yM3bb+XIEChFtdBUKESXSJFx+aQ+7AjMXbmT1Sm6xsa+/Z+N3eYOpiixWsvH/7K233rDHSp8XzAJ1YK+lSXtKwueRiIQXTmPp/vH5xBvp0qWz+LZD7LJ5o3rakMkL7feEf3Pf2tk2vn9/m7zqgPd7IUQ0kQgVIqbIZFnOymiRzWttbaoUodFgt0XSZEyVi+H+A/stkvAVv5xud30wzN66YbV9+tzT9tL4jNbgs/72XNHU52MQIhaRO16IKIA7PketpfbkvMn2VN6/3PG2f769XqKIvZetnf0w7CHLNHOg9Rk5zZZs3m9n5ihk5WpWt2zzetngyfNs7c5Mlj1/KatWv4JdgS/1z4U2tGM/W3RqNstse2z/mYWs2r23WLZfRlvHzyckHGOPZbqwuFVvVNuuPSdiiwa+bh0nbbR02UpanTqX2qLhI23aks22/6xcVqRcDbvr3HnWa9Bkm7dup2XKnt9KVatvFdwL7bZfRnW1IUv2Wfr9O2zTlgxW/IGmVjF3BjuwfroN7HPwOAey5LaiFe6xe244zxb3e8U6fP27nXJOIbur6QNW8piu0D027ZkiVvan5rYypd3xu0ZYt0FFre692Q8J0X2zXrBi13eyQv1X2mdV/3LHH9jwnXX7dJLtPPsc279mme0u1tCaVcpt6X4dYW++3t/mbIjY9S1ftGtWTbWV27fZug27LFfFBla9UJa/RO6BDfZdt09t0s6z7Zz9a2zZ7mLWsFkly51+s80a/LkNm7rYNqW70AoUuNhOO/Cnbd93sZWqebvlO8P7+385/8di//rvrU+3UbbEstgZ6TLZ7umvWfsDTey/159mO9Pvse17c9ht9RLmR7aEd7tnkY3u+LlNSPgs92S60IpXb2S1rz3HIosG2usdJ9nGdNmsZJ06dumi4TZy2hLbvP8sy1WknNW461yb12uQTZ63znZmym75S1WzhtdsPfa8aFzJTp3S79Cxcha+ze6uli3hWIMTjrX20LHqJhxrhHes/WfmsELlalr1bAlzdXDCXF3rz9W6ds3WEUm/doQQ0QERKoQIlp2D74+ce2qJyBsLdkX27t0b2b19fWTZ7C8iHRuXilxb9eXI+N/2e89MeO74JpFcZ9eM9NnqDUR2Rb5ucXnktJJvR5bs84Z2z418ULFApGrnJZG9bmBb5Pv/VYxUbb3APdq7oE2kdJbskfrDdrjHjh3DI03Kt4pM3OS91s7xkSa5zo7U7LPt4OME9s19JVIsU8nI24deaFvkuzcqRMo/903Efzt7V/SLNLipeqTLwoOv7I6T+8JEr7UzMvOVOyNV/jsisjTRy/87uyPfPZ0/krlC58gmbySl2LesW+TjETu9RwfZO/P5SKFTskXqDkk0vnl8pGXR6yMtv9x88PH2aZHnixeONJ9w8EzsXdcvUueiMyJX1/04Mv33g+d03/LPI/fkKxJpPnpj5ODI5sj4lkUj17f8MuEn2B6Z9nzxSOHmE7zzuSsy8dFLI2dV75XwG9gbWd6nTuTyy+pF+q3hCEk4/0dh37JekTpXFojU77/84BzZPiPyyg2nRzIXfzkyw30u+yKrhzSMFLqqXqTPCu/z3rsg0qZ0lkj2+sMif310OyLDm5SPtJq4yfufdkbGN8kVObtmn4R357FvbuSVYpkiJd9eknBUjyTNi4PHylqj16H/L7I34VhFj3AsN1cPPSuy6+sWkctPSzxXeVoSrh0hRNRIjR4oIWKDyK/29Wft7cMPP7QOH/ey4d9tsryP9rUpQ160Wy/469JMmymzZTwlg2U45eDjHTN62rCFEUuTMbNldoGMB+y3z/9jryy8xZrVzXMwmWn/Ops5/VfbsW8njyz9lQ9ay+qn2PgBY+0PN2K2b/kqy/PQU3bL2d5rpc1kmU871TJmTOSqPO00y5g2o2U++EK2f/6H1uLtiN35aHHzDXPpc95lLW5dYS8+3982EGrHcTKeYqecki7hRVbbhA7v2nclP7TBL1WySzMd/JtYYveCP83yeCf3qOyzn9o+Y13Ous+a35z14FDmolan6mnWq9Mo9zB9lpx2UZZTLX/le61YloPnNF2uWvbcvemtc4s37bs9CUf5qa090+Usu6/5zXbwKJmtaJ2qdlqvTjbKfTBpLFPm01ys5sEznt4uLlbQsq2ZaT/+eiBp5/9IHNhgA55paWOuesberpbr4BzJfLXdXDS7XVD0RivgPpd0dmGVV6153uHW4umBB4+V/kp7sGV1O2X8ABv718SxVXkesqduOduz7qZ17/nUjBkTJdKdZqdlTGsZM2f+K9Y2SfPi4LEyZMpkhz6RNAnHOu3Ix8rw10VhPYctdGEV/lyFY187QohoIhEqRNQ414rVetyaN2+e8NXMHmtY08oWOM9O9X77Nw4cSJCaCd/WT7Tusy6zWjedm+ji3WmTRk+ybZcXtIK+azFdHms8aI6Nf6qIN3CGlWt4j2UZ2dUG/saRdtv08X9aoQrZ/r4IRHbbim/6WM+ePd1Xr+GzbeMhYXPAVo8faz9mvdyuzJr4r9LbJXlz2rYJI2xyojjWyNbvrF3tW63ZnGJWq9RFCRInpdhmS78db2PGjDn0Nf77FZa0kNo99tNys3yXHuPdHVhlEybOTfhPV9u47t2sWze+etjkdRktw5bfvCdBxP4e4JTOLit9k128bKyNmr3HVk2YaHMTlNrqcd29Y3SzHpPXWcYMW+y3DX5sZsT2rZpqfbt/ah3eeMIefGGJVe49wJ67Lu1xnf+/sfMrGzz2dytc9lY7599W/bTZrEK5a+z3MQPtywRtDmeUa2j3ZBlpXQf+5ubg7unj7c9CFQyP/V9EbPeKb6yPN2969hpus/+aOH8j+eZFwjVx8KKwid1n2WW1brJzj/S//eu1I4SIJroWhQgDkQMW2feLDe3zm91Ut6SdlTaxGWe3bd++y9JmyHhkAetxarEG9kD+Kdbt8yW2748v7Ju0N9stp3u/9EmTwXKVrG116tRxX/dWKZjoxh6x7du2WyR9ekt/mBUpDWnkf261rXu8gcgf9sO4lXbjS0/Z5cOb2mP9VzshkCLs32BTe39o7dq1O/TVfuBM+yMpL/jnd/ZDpLAV+7cTB5E9tndfGjsrfwWrU7++1fe+GraZaCvHNveedGTSZj7dMtmftm3Hftuzd5+lOSu/Vajz1zHqN2xjE1eOteaHYoPTWPqLS1itug2syeNPWNNyGe2H/iNs1ub9ST//h7P7D9u6M72dedbpx1j001rmM86wdDv/sC0HjehMHGvwQH6b0u1zW7LvD/vim7R28z8njmXIVdJqe/Omzr1VrOCRFGGyzouIHYjss1+G9rHfbqprJc9K+5elNDH/eu0IIaLJv69HQojY4MAum9trhKW/s7YVyJBwy0+T+EZ6phUucrlFli+xpfu8IccB+33tOu/nBNLltXvrlbR53bvauGHzLUv5Iv8qWv9JOstVuKCds36FrfAFiuOAbfhtg+2/orAV9rVJmrOsWI2aVqRAPfuow602o0UDa7/gaArpJEl3qdVpN9RGjhx56GvIW3fZsctAHrCVw6bbmeWuO3aNzHQ5rWih823zyuW2wxs6yAHbkvgcH4Ft8+fZitMKWtH8p1nOooXs/M0rbfnfD2IHtqy1dZ7lMTFpM19o19dtaTesfM7ue35y0s//4ZxZ1IpdecAWzZ1vf5si/2CPzf5xnu27vKhd40Ud8LnnvbeelZzX3bqOG2bzs5S3Isc3cf4iWefFAds1t5eNSH+n1T54URxZhP7rtSOEiCYSoUJEgwP7bX/CTTRJ1XEiEYvsWmibLrnPKuVM7LxMGHff01uRRi2t4sZB1nNaIiWzbYr16L/AewBpLXu1elZhY1d7YnJ2q5Q4K9+BKznhRp74Hu3d2H0Xc+Zyj9ujBWZZ/4G/Jrx7j30/W79hv1mVpxpZIRcUyPvy31taO/+O9+yT+9fby3Vfsq+3uMEksX/ffovs32/7UsiEumvB59b9j1JW8x/nIQF3EhL71TNaqceaW7G5va3XkkQf2u9f2qf9F3oPEojsstXLVyV8th77F1mPT7+13E2fsOrZEo5S6jFrXmyu9e615K/n2O/25af9baH/cnzeiV/7z+W2Ym16Oy/7uUk8/0cgfSFr/HRV29r3Ixu5yf/LvbZ5y1bb+vvvCT8d5MCGEdZp4E6r+kwTuybRsdJmr2b1Kmy0rk9MtuyV8v7DhR5JeM9/F3fePPpbbELS5gXHOiKHHyvhXC/cdIndVynn397P35+W8Lx/vXaEENEk3UsJeD8LIVKafXOt14sv2RvdRtnsdetszYpVtnJDBrv6ujx2RuJ7uOOArf32c+vQqZeNmbfbsuXKaufnzmvbv+pkH342zGYs2mh7TjnbchW+ws47t7CVL7nfhrzb1eb8ecC2LP7WRk/catfVu8NynJbowKfltizLR9jv5V+xOvkSlR5a+6193qGT9Roz05ZvT2MZsuWyvNsnWef23Wzo9EW2cc8pdnauwnbFBRfbDRXz25Iub9ugJX/ajlXTbVCHz+zX8m3sg/pX2Kn+cUb/kHCctJb5gjx2da5TbN0Pw61fnz42aMpvdkqugnb9JWd5r3w4++ynni9Zm0+726f9vrFfly+1n1cts9k/77OyN1zmPefkOLB6uL3U9HFr8UI/++20HTZ7whgbPXp0oq9RNmzQSJu8aJUt+3muLZyzwk4pfINdcen1Vr7IBuv5v67209adtmb6WBv+7QEr1eAOu4hTuX+1fdGpp60+O5dtX7fGtqz9yQa3fs+mXPaidX3ltoMxlGmz2XXli9iGnv+zrj9ttZ1rptvY4d/agVIN7I5c22xan4/so56j7Mff0tgZp2y2OVMn2OBP+tjSQs/Zhy/eaudmuOBfz//RezulsTOvrmClM421d9tOsS3pdtrCcQNs7KRptmBzGtu3fbv9uXmW9Xyzl+2q/7F1qHfFYdbh0yx3luU24vfy9kqdfH+9zoG19u3nHaxTrzE2c/l2S5Mhm+XKu90mdW5v3YZOt0Ub99gpCefjurMWH3te5LjA9n/b0x3rx3XpLOupm23BnLk2e/o4GzLka/tx9TZLkz6r5c62yoZ9xFydZ7sT5mnW83MnzNWvrNOHn9mwGf5cLWhnLe6bpGsn29GEuxAixVGdUCHijN2bVtiaPedYzuynHyHpY5dNbtvZ0jR+3G46umJJErs3LbdVO7JYrpxZEmVFxz67v3jEir+Uzpq//YRVK5bDzjj1yA6hfX+stkWzv7AOrd6zNG98b+3K+LLsgO1Yu8I2nJLdcp6TqMj9nmn2TJEKtvSF1da/ptm6VVst88UXeP3o/8mBHWttxYZTLHvOcyzjUZ7zb5z4+d9nW1avsf3nnmezWuSzh/Z3tJ8/KGbrN6a1Cy/KetRj7Zrc1jqnaWyPn+zEOQEO7N5sK2cOtOdaTrPaX3axKsG/BSFECnACS58QIpbJcE4uuySRAD2wbqr17TPV1h1I+Hn9SJuWoYyVSIabeIZzcluekAlQ2LUuq1Vr857VuyHXUQUopD/rIst/Uz17t3UVy7Q2cdwilrxLLHdiAXqINObyXtJmsvNzHl2AQtrMF9gluU9MgMKJn//0luWinHZOhjSWLm06S5suvaXJkLBpOVyAHlhnU/v2sakHJ46NnJbByiTHxDkB0mY423KXaGAv187zV8KUECL0SIQKEefsndnV/vvOSFu85zeb0Ge9XVszf+iEY/Kx39ZsOdcKXpX0M5CxyLV20dbV3qOjsHuDLZo+zRZu3mnLZk62OWu2e7+IVf60dQun2w+/bLEtS763aT+vSxg5jL0zret/37GRi/fYbxP62Ppra1r+qE6cdJaj0CWWaVsKBQkLIQJH7ngh4p0DG2zWyLE2a81+y12+tpVJQnvH+OWArZ073yx/AUvUD+DfObDW+JMCBS7wBv7JgfVTre+AH+xgzk8ay3BZBWtQPs8RwiFihP2rbfLnQ2321oOCLs0ZV9sddW6xHH97wwdsw6yRNnbWGtufu7zVLpP72FUEhBDiOJAIFUIIIYQQgSN3vBBCCCGECByJUCGEEEIIETgSoUIIIYQQInAkQoUQQgghROBIhAohhBBCiMCRCBVCCCGEEIEjESqEEEIIIQJHIlQIIYQQQgSORKgQQgghhAgciVAhhBBCCBE4EqFCCCGEECJgzP4P+sVj+pxmLyIAAAAASUVORK5CYII=;" vertex="1" parent="1">
          <mxGeometry x="320" y="-170" width="673" height="302" as="geometry" />
        </mxCell>
        <mxCell id="Z0_R9jMkdf56CGR1nw3I-11" style="edgeStyle=none;shape=connector;rounded=0;orthogonalLoop=1;jettySize=auto;html=1;exitX=0.5;exitY=1;exitDx=0;exitDy=0;strokeColor=default;strokeWidth=2;align=center;verticalAlign=middle;fontFamily=Helvetica;fontSize=12;fontColor=default;labelBackgroundColor=default;endArrow=none;endFill=0;" edge="1" parent="1" source="Z0_R9jMkdf56CGR1nw3I-15">
          <mxGeometry relative="1" as="geometry">
            <mxPoint x="740" y="440" as="targetPoint" />
            <mxPoint x="603" y="310" as="sourcePoint" />
          </mxGeometry>
        </mxCell>
        <mxCell id="Z0_R9jMkdf56CGR1nw3I-13" style="edgeStyle=none;shape=connector;rounded=0;orthogonalLoop=1;jettySize=auto;html=1;exitX=0.5;exitY=0;exitDx=0;exitDy=0;strokeColor=default;strokeWidth=2;align=center;verticalAlign=middle;fontFamily=Helvetica;fontSize=12;fontColor=default;labelBackgroundColor=default;endArrow=none;endFill=0;" edge="1" parent="1" source="Z0_R9jMkdf56CGR1nw3I-14">
          <mxGeometry relative="1" as="geometry">
            <mxPoint x="700" y="440" as="targetPoint" />
            <mxPoint x="510" y="620" as="sourcePoint" />
          </mxGeometry>
        </mxCell>
        <mxCell id="Z0_R9jMkdf56CGR1nw3I-14" value="&lt;span style=&quot;color: rgb(0, 0, 0); font-family: Helvetica; font-size: 12px; font-style: normal; font-variant-ligatures: normal; font-variant-caps: normal; font-weight: 400; letter-spacing: normal; orphans: 2; text-align: center; text-indent: 0px; text-transform: none; widows: 2; word-spacing: 0px; -webkit-text-stroke-width: 0px; white-space: normal; background-color: rgb(251, 251, 251); text-decoration-thickness: initial; text-decoration-style: initial; text-decoration-color: initial; display: inline !important; float: none;&quot;&gt;Редактирование информации о пользователе&lt;/span&gt;" style="rounded=0;whiteSpace=wrap;html=1;strokeColor=default;strokeWidth=2;align=center;verticalAlign=middle;fontFamily=Helvetica;fontSize=12;fontColor=default;fillColor=default;" vertex="1" parent="1">
          <mxGeometry x="370" y="640" width="120" height="60" as="geometry" />
        </mxCell>
        <mxCell id="Z0_R9jMkdf56CGR1nw3I-15" value="Регистрация пользователя" style="rounded=0;whiteSpace=wrap;html=1;strokeColor=default;strokeWidth=2;align=center;verticalAlign=middle;fontFamily=Helvetica;fontSize=12;fontColor=default;fillColor=default;" vertex="1" parent="1">
          <mxGeometry x="500" y="260" width="120" height="40" as="geometry" />
        </mxCell>
        <mxCell id="Z0_R9jMkdf56CGR1nw3I-24" style="edgeStyle=none;shape=connector;rounded=0;orthogonalLoop=1;jettySize=auto;html=1;exitX=0.5;exitY=0;exitDx=0;exitDy=0;strokeColor=default;strokeWidth=2;align=center;verticalAlign=middle;fontFamily=Helvetica;fontSize=12;fontColor=default;labelBackgroundColor=default;endArrow=none;endFill=0;" edge="1" parent="1" source="Z0_R9jMkdf56CGR1nw3I-18">
          <mxGeometry relative="1" as="geometry">
            <mxPoint x="660" y="470" as="targetPoint" />
          </mxGeometry>
        </mxCell>
        <mxCell id="Z0_R9jMkdf56CGR1nw3I-18" value="&lt;span style=&quot;color: rgb(0, 0, 0); font-family: Helvetica; font-size: 12px; font-style: normal; font-variant-ligatures: normal; font-variant-caps: normal; font-weight: 400; letter-spacing: normal; orphans: 2; text-align: center; text-indent: 0px; text-transform: none; widows: 2; word-spacing: 0px; -webkit-text-stroke-width: 0px; white-space: normal; background-color: rgb(251, 251, 251); text-decoration-thickness: initial; text-decoration-style: initial; text-decoration-color: initial; display: inline !important; float: none;&quot;&gt;Изменить адрес электронной почты&lt;/span&gt;" style="rounded=0;whiteSpace=wrap;html=1;strokeColor=#666666;strokeWidth=2;align=center;verticalAlign=middle;fontFamily=Helvetica;fontSize=12;fontColor=#333333;fillColor=#f5f5f5;" vertex="1" parent="1">
          <mxGeometry x="670" y="555" width="120" height="45" as="geometry" />
        </mxCell>
        <mxCell id="Z0_R9jMkdf56CGR1nw3I-29" style="edgeStyle=none;shape=connector;rounded=0;orthogonalLoop=1;jettySize=auto;html=1;exitX=0.5;exitY=1;exitDx=0;exitDy=0;strokeColor=default;strokeWidth=2;align=center;verticalAlign=middle;fontFamily=Helvetica;fontSize=12;fontColor=default;labelBackgroundColor=default;endArrow=none;endFill=0;" edge="1" parent="1" source="Z0_R9jMkdf56CGR1nw3I-25">
          <mxGeometry relative="1" as="geometry">
            <mxPoint x="470" y="610" as="targetPoint" />
          </mxGeometry>
        </mxCell>
        <mxCell id="Z0_R9jMkdf56CGR1nw3I-25" value="&lt;span style=&quot;color: rgb(0, 0, 0); font-family: Helvetica; font-size: 12px; font-style: normal; font-variant-ligatures: normal; font-variant-caps: normal; font-weight: 400; letter-spacing: normal; orphans: 2; text-align: center; text-indent: 0px; text-transform: none; widows: 2; word-spacing: 0px; -webkit-text-stroke-width: 0px; white-space: normal; background-color: rgb(251, 251, 251); text-decoration-thickness: initial; text-decoration-style: initial; text-decoration-color: initial; display: inline !important; float: none;&quot;&gt;Изменить&lt;br&gt;ФИО&lt;/span&gt;" style="rounded=0;whiteSpace=wrap;html=1;strokeColor=#666666;strokeWidth=2;align=center;verticalAlign=middle;fontFamily=Helvetica;fontSize=12;fontColor=#333333;fillColor=#f5f5f5;" vertex="1" parent="1">
          <mxGeometry x="360" y="510" width="120" height="40" as="geometry" />
        </mxCell>
        <mxCell id="Z0_R9jMkdf56CGR1nw3I-28" style="edgeStyle=none;shape=connector;rounded=0;orthogonalLoop=1;jettySize=auto;html=1;exitX=0.5;exitY=0;exitDx=0;exitDy=0;strokeColor=default;strokeWidth=2;align=center;verticalAlign=middle;fontFamily=Helvetica;fontSize=12;fontColor=default;labelBackgroundColor=default;endArrow=none;endFill=0;" edge="1" parent="1" source="Z0_R9jMkdf56CGR1nw3I-27">
          <mxGeometry relative="1" as="geometry">
            <mxPoint x="550" y="550" as="targetPoint" />
          </mxGeometry>
        </mxCell>
        <mxCell id="Z0_R9jMkdf56CGR1nw3I-27" value="&lt;span style=&quot;color: rgb(0, 0, 0); font-family: Helvetica; font-size: 12px; font-style: normal; font-variant-ligatures: normal; font-variant-caps: normal; font-weight: 400; letter-spacing: normal; orphans: 2; text-align: center; text-indent: 0px; text-transform: none; widows: 2; word-spacing: 0px; -webkit-text-stroke-width: 0px; white-space: normal; background-color: rgb(251, 251, 251); text-decoration-thickness: initial; text-decoration-style: initial; text-decoration-color: initial; display: inline !important; float: none;&quot;&gt;Изменить паспортные данные&lt;/span&gt;" style="rounded=0;whiteSpace=wrap;html=1;strokeColor=#666666;strokeWidth=2;align=center;verticalAlign=middle;fontFamily=Helvetica;fontSize=12;fontColor=#333333;fillColor=#f5f5f5;" vertex="1" parent="1">
          <mxGeometry x="540" y="615" width="120" height="45" as="geometry" />
        </mxCell>
        <mxCell id="Z0_R9jMkdf56CGR1nw3I-31" style="edgeStyle=none;shape=connector;rounded=0;orthogonalLoop=1;jettySize=auto;html=1;exitX=0.5;exitY=1;exitDx=0;exitDy=0;strokeColor=default;strokeWidth=2;align=center;verticalAlign=middle;fontFamily=Helvetica;fontSize=12;fontColor=default;labelBackgroundColor=default;endArrow=none;endFill=0;" edge="1" parent="1" source="Z0_R9jMkdf56CGR1nw3I-30">
          <mxGeometry relative="1" as="geometry">
            <mxPoint x="540" y="440" as="targetPoint" />
          </mxGeometry>
        </mxCell>
        <mxCell id="Z0_R9jMkdf56CGR1nw3I-30" value="Разместить событие" style="rounded=0;whiteSpace=wrap;html=1;strokeColor=default;strokeWidth=2;align=center;verticalAlign=middle;fontFamily=Helvetica;fontSize=12;fontColor=default;fillColor=default;" vertex="1" parent="1">
          <mxGeometry x="300" y="260" width="120" height="40" as="geometry" />
        </mxCell>
        <mxCell id="Z0_R9jMkdf56CGR1nw3I-33" style="edgeStyle=none;shape=connector;rounded=0;orthogonalLoop=1;jettySize=auto;html=1;exitX=0.5;exitY=0;exitDx=0;exitDy=0;strokeColor=default;strokeWidth=2;align=center;verticalAlign=middle;fontFamily=Helvetica;fontSize=12;fontColor=default;labelBackgroundColor=default;endArrow=none;endFill=0;" edge="1" parent="1" source="Z0_R9jMkdf56CGR1nw3I-32">
          <mxGeometry relative="1" as="geometry">
            <mxPoint x="330" y="440" as="targetPoint" />
          </mxGeometry>
        </mxCell>
        <mxCell id="Z0_R9jMkdf56CGR1nw3I-32" value="Редактировать событие" style="rounded=0;whiteSpace=wrap;html=1;strokeColor=default;strokeWidth=2;align=center;verticalAlign=middle;fontFamily=Helvetica;fontSize=12;fontColor=default;fillColor=default;" vertex="1" parent="1">
          <mxGeometry x="70" y="640" width="120" height="40" as="geometry" />
        </mxCell>
        <mxCell id="Z0_R9jMkdf56CGR1nw3I-35" style="edgeStyle=none;shape=connector;rounded=0;orthogonalLoop=1;jettySize=auto;html=1;exitX=0.5;exitY=1;exitDx=0;exitDy=0;strokeColor=default;strokeWidth=2;align=center;verticalAlign=middle;fontFamily=Helvetica;fontSize=12;fontColor=default;labelBackgroundColor=default;endArrow=none;endFill=0;" edge="1" parent="1" source="Z0_R9jMkdf56CGR1nw3I-34">
          <mxGeometry relative="1" as="geometry">
            <mxPoint x="190" y="440" as="targetPoint" />
          </mxGeometry>
        </mxCell>
        <mxCell id="Z0_R9jMkdf56CGR1nw3I-34" value="Фиксирование исхода события" style="rounded=0;whiteSpace=wrap;html=1;strokeColor=default;strokeWidth=2;align=center;verticalAlign=middle;fontFamily=Helvetica;fontSize=12;fontColor=default;fillColor=default;" vertex="1" parent="1">
          <mxGeometry x="60" y="250" width="110" height="50" as="geometry" />
        </mxCell>
        <mxCell id="Z0_R9jMkdf56CGR1nw3I-37" style="edgeStyle=none;shape=connector;rounded=0;orthogonalLoop=1;jettySize=auto;html=1;exitX=1;exitY=0.5;exitDx=0;exitDy=0;strokeColor=default;strokeWidth=2;align=center;verticalAlign=middle;fontFamily=Helvetica;fontSize=12;fontColor=default;labelBackgroundColor=default;endArrow=none;endFill=0;" edge="1" parent="1" source="Z0_R9jMkdf56CGR1nw3I-36">
          <mxGeometry relative="1" as="geometry">
            <mxPoint x="-541" y="111" as="targetPoint" />
          </mxGeometry>
        </mxCell>
        <mxCell id="Z0_R9jMkdf56CGR1nw3I-38" value="Последняя шестерня моего мозга, которая хоть как то работает" style="edgeLabel;html=1;align=center;verticalAlign=middle;resizable=0;points=[];rounded=1;strokeColor=default;strokeWidth=2;fontFamily=Helvetica;fontSize=12;fontColor=default;fillColor=default;" vertex="1" connectable="0" parent="Z0_R9jMkdf56CGR1nw3I-37">
          <mxGeometry x="0.3051" y="6" relative="1" as="geometry">
            <mxPoint x="179" y="6" as="offset" />
          </mxGeometry>
        </mxCell>
        <mxCell id="Z0_R9jMkdf56CGR1nw3I-36" value="" style="shape=image;html=1;verticalLabelPosition=bottom;verticalAlign=top;imageAspect=1;aspect=fixed;image=img/clipart/Gear_128x128.png;rounded=1;strokeColor=default;strokeWidth=2;align=center;fontFamily=Helvetica;fontSize=12;fontColor=default;fillColor=default;" vertex="1" parent="1">
          <mxGeometry x="-620" y="80" width="52" height="61" as="geometry" />
        </mxCell>
        <mxCell id="Z0_R9jMkdf56CGR1nw3I-40" style="edgeStyle=none;shape=connector;rounded=0;orthogonalLoop=1;jettySize=auto;html=1;exitX=0.5;exitY=1;exitDx=0;exitDy=0;strokeColor=default;strokeWidth=2;align=center;verticalAlign=middle;fontFamily=Helvetica;fontSize=12;fontColor=default;labelBackgroundColor=default;endArrow=none;endFill=0;" edge="1" parent="1" source="Z0_R9jMkdf56CGR1nw3I-39">
          <mxGeometry relative="1" as="geometry">
            <mxPoint x="-30" y="440" as="targetPoint" />
          </mxGeometry>
        </mxCell>
        <mxCell id="Z0_R9jMkdf56CGR1nw3I-39" value="Создание ставки" style="rounded=0;whiteSpace=wrap;html=1;strokeColor=default;strokeWidth=2;align=center;verticalAlign=middle;fontFamily=Helvetica;fontSize=12;fontColor=default;fillColor=default;" vertex="1" parent="1">
          <mxGeometry x="-170" y="260" width="110" height="40" as="geometry" />
        </mxCell>
        <mxCell id="Z0_R9jMkdf56CGR1nw3I-42" style="edgeStyle=none;shape=connector;rounded=0;orthogonalLoop=1;jettySize=auto;html=1;exitX=0.5;exitY=0;exitDx=0;exitDy=0;strokeColor=default;strokeWidth=2;align=center;verticalAlign=middle;fontFamily=Helvetica;fontSize=12;fontColor=default;labelBackgroundColor=default;endArrow=none;endFill=0;" edge="1" parent="1">
          <mxGeometry relative="1" as="geometry">
            <mxPoint x="-370" y="650" as="sourcePoint" />
            <mxPoint x="-370" y="650" as="targetPoint" />
          </mxGeometry>
        </mxCell>
        <mxCell id="Z0_R9jMkdf56CGR1nw3I-50" style="edgeStyle=none;shape=connector;rounded=0;orthogonalLoop=1;jettySize=auto;html=1;exitX=0.5;exitY=0;exitDx=0;exitDy=0;strokeColor=default;strokeWidth=2;align=center;verticalAlign=middle;fontFamily=Helvetica;fontSize=12;fontColor=default;labelBackgroundColor=default;endArrow=none;endFill=0;" edge="1" parent="1" source="Z0_R9jMkdf56CGR1nw3I-43">
          <mxGeometry relative="1" as="geometry">
            <mxPoint x="-90" y="440" as="targetPoint" />
          </mxGeometry>
        </mxCell>
        <mxCell id="Z0_R9jMkdf56CGR1nw3I-43" value="&lt;span style=&quot;color: rgb(0, 0, 0); font-family: Helvetica; font-size: 12px; font-style: normal; font-variant-ligatures: normal; font-variant-caps: normal; font-weight: 400; letter-spacing: normal; orphans: 2; text-align: center; text-indent: 0px; text-transform: none; widows: 2; word-spacing: 0px; -webkit-text-stroke-width: 0px; white-space: normal; background-color: rgb(251, 251, 251); text-decoration-thickness: initial; text-decoration-style: initial; text-decoration-color: initial; display: inline !important; float: none;&quot;&gt;Редактирование информации о пользователе&lt;/span&gt;" style="rounded=0;whiteSpace=wrap;html=1;strokeColor=default;strokeWidth=2;align=center;verticalAlign=middle;fontFamily=Helvetica;fontSize=12;fontColor=default;fillColor=default;" vertex="1" parent="1">
          <mxGeometry x="-420" y="630" width="120" height="60" as="geometry" />
        </mxCell>
        <mxCell id="Z0_R9jMkdf56CGR1nw3I-44" style="edgeStyle=none;shape=connector;rounded=0;orthogonalLoop=1;jettySize=auto;html=1;exitX=0.5;exitY=0;exitDx=0;exitDy=0;strokeColor=default;strokeWidth=2;align=center;verticalAlign=middle;fontFamily=Helvetica;fontSize=12;fontColor=default;labelBackgroundColor=default;endArrow=none;endFill=0;" edge="1" parent="1" source="Z0_R9jMkdf56CGR1nw3I-45">
          <mxGeometry relative="1" as="geometry">
            <mxPoint x="-160" y="490" as="targetPoint" />
          </mxGeometry>
        </mxCell>
        <mxCell id="Z0_R9jMkdf56CGR1nw3I-45" value="&lt;span style=&quot;color: rgb(0, 0, 0); font-family: Helvetica; font-size: 12px; font-style: normal; font-variant-ligatures: normal; font-variant-caps: normal; font-weight: 400; letter-spacing: normal; orphans: 2; text-align: center; text-indent: 0px; text-transform: none; widows: 2; word-spacing: 0px; -webkit-text-stroke-width: 0px; white-space: normal; background-color: rgb(251, 251, 251); text-decoration-thickness: initial; text-decoration-style: initial; text-decoration-color: initial; display: inline !important; float: none;&quot;&gt;Изменить адрес электронной почты&lt;/span&gt;" style="rounded=0;whiteSpace=wrap;html=1;strokeColor=#666666;strokeWidth=2;align=center;verticalAlign=middle;fontFamily=Helvetica;fontSize=12;fontColor=#333333;fillColor=#f5f5f5;" vertex="1" parent="1">
          <mxGeometry x="-120" y="555" width="120" height="45" as="geometry" />
        </mxCell>
        <mxCell id="Z0_R9jMkdf56CGR1nw3I-46" style="edgeStyle=none;shape=connector;rounded=0;orthogonalLoop=1;jettySize=auto;html=1;exitX=0.5;exitY=1;exitDx=0;exitDy=0;strokeColor=default;strokeWidth=2;align=center;verticalAlign=middle;fontFamily=Helvetica;fontSize=12;fontColor=default;labelBackgroundColor=default;endArrow=none;endFill=0;" edge="1" parent="1" source="Z0_R9jMkdf56CGR1nw3I-47">
          <mxGeometry relative="1" as="geometry">
            <mxPoint x="-320" y="600" as="targetPoint" />
          </mxGeometry>
        </mxCell>
        <mxCell id="Z0_R9jMkdf56CGR1nw3I-47" value="&lt;span style=&quot;color: rgb(0, 0, 0); font-family: Helvetica; font-size: 12px; font-style: normal; font-variant-ligatures: normal; font-variant-caps: normal; font-weight: 400; letter-spacing: normal; orphans: 2; text-align: center; text-indent: 0px; text-transform: none; widows: 2; word-spacing: 0px; -webkit-text-stroke-width: 0px; white-space: normal; background-color: rgb(251, 251, 251); text-decoration-thickness: initial; text-decoration-style: initial; text-decoration-color: initial; display: inline !important; float: none;&quot;&gt;Изменить&lt;br&gt;ФИО&lt;/span&gt;" style="rounded=0;whiteSpace=wrap;html=1;strokeColor=#666666;strokeWidth=2;align=center;verticalAlign=middle;fontFamily=Helvetica;fontSize=12;fontColor=#333333;fillColor=#f5f5f5;" vertex="1" parent="1">
          <mxGeometry x="-430" y="510" width="120" height="40" as="geometry" />
        </mxCell>
        <mxCell id="Z0_R9jMkdf56CGR1nw3I-48" style="edgeStyle=none;shape=connector;rounded=0;orthogonalLoop=1;jettySize=auto;html=1;exitX=0.5;exitY=0;exitDx=0;exitDy=0;strokeColor=default;strokeWidth=2;align=center;verticalAlign=middle;fontFamily=Helvetica;fontSize=12;fontColor=default;labelBackgroundColor=default;endArrow=none;endFill=0;" edge="1" parent="1" source="Z0_R9jMkdf56CGR1nw3I-49">
          <mxGeometry relative="1" as="geometry">
            <mxPoint x="-230" y="540" as="targetPoint" />
          </mxGeometry>
        </mxCell>
        <mxCell id="Z0_R9jMkdf56CGR1nw3I-49" value="&lt;span style=&quot;color: rgb(0, 0, 0); font-family: Helvetica; font-size: 12px; font-style: normal; font-variant-ligatures: normal; font-variant-caps: normal; font-weight: 400; letter-spacing: normal; orphans: 2; text-align: center; text-indent: 0px; text-transform: none; widows: 2; word-spacing: 0px; -webkit-text-stroke-width: 0px; white-space: normal; background-color: rgb(251, 251, 251); text-decoration-thickness: initial; text-decoration-style: initial; text-decoration-color: initial; display: inline !important; float: none;&quot;&gt;Изменить паспортные данные&lt;/span&gt;" style="rounded=0;whiteSpace=wrap;html=1;strokeColor=#666666;strokeWidth=2;align=center;verticalAlign=middle;fontFamily=Helvetica;fontSize=12;fontColor=#333333;fillColor=#f5f5f5;" vertex="1" parent="1">
          <mxGeometry x="-250" y="615" width="120" height="45" as="geometry" />
        </mxCell>
        <mxCell id="Z0_R9jMkdf56CGR1nw3I-51" style="edgeStyle=none;shape=connector;rounded=0;orthogonalLoop=1;jettySize=auto;html=1;exitX=0.5;exitY=1;exitDx=0;exitDy=0;strokeColor=default;strokeWidth=2;align=center;verticalAlign=middle;fontFamily=Helvetica;fontSize=12;fontColor=default;labelBackgroundColor=default;endArrow=none;endFill=0;" edge="1" parent="1" source="Z0_R9jMkdf56CGR1nw3I-52">
          <mxGeometry relative="1" as="geometry">
            <mxPoint x="-260" y="440" as="targetPoint" />
            <Array as="points" />
          </mxGeometry>
        </mxCell>
        <mxCell id="Z0_R9jMkdf56CGR1nw3I-52" value="Управление ставками" style="rounded=0;whiteSpace=wrap;html=1;strokeColor=default;strokeWidth=2;align=center;verticalAlign=middle;fontFamily=Helvetica;fontSize=12;fontColor=default;fillColor=default;" vertex="1" parent="1">
          <mxGeometry x="-483" y="230" width="140" height="40" as="geometry" />
        </mxCell>
        <mxCell id="Z0_R9jMkdf56CGR1nw3I-54" style="edgeStyle=none;shape=connector;rounded=0;orthogonalLoop=1;jettySize=auto;html=1;exitX=0.5;exitY=1;exitDx=0;exitDy=0;strokeColor=default;strokeWidth=2;align=center;verticalAlign=middle;fontFamily=Helvetica;fontSize=12;fontColor=default;labelBackgroundColor=default;endArrow=none;endFill=0;" edge="1" parent="1" source="Z0_R9jMkdf56CGR1nw3I-53">
          <mxGeometry relative="1" as="geometry">
            <mxPoint x="590" y="520" as="targetPoint" />
          </mxGeometry>
        </mxCell>
        <mxCell id="Z0_R9jMkdf56CGR1nw3I-53" value="&lt;span style=&quot;color: rgb(0, 0, 0); font-family: Helvetica; font-size: 12px; font-style: normal; font-variant-ligatures: normal; font-variant-caps: normal; font-weight: 400; letter-spacing: normal; orphans: 2; text-align: center; text-indent: 0px; text-transform: none; widows: 2; word-spacing: 0px; -webkit-text-stroke-width: 0px; white-space: normal; background-color: rgb(251, 251, 251); text-decoration-thickness: initial; text-decoration-style: initial; text-decoration-color: initial; display: inline !important; float: none;&quot;&gt;Удаление пользователя&lt;/span&gt;" style="rounded=0;whiteSpace=wrap;html=1;strokeColor=#666666;strokeWidth=2;align=center;verticalAlign=middle;fontFamily=Helvetica;fontSize=12;fontColor=#333333;fillColor=#f5f5f5;" vertex="1" parent="1">
          <mxGeometry x="480" y="450" width="120" height="45" as="geometry" />
        </mxCell>
        <mxCell id="Z0_R9jMkdf56CGR1nw3I-55" style="edgeStyle=none;shape=connector;rounded=0;orthogonalLoop=1;jettySize=auto;html=1;exitX=0.5;exitY=1;exitDx=0;exitDy=0;strokeColor=default;strokeWidth=2;align=center;verticalAlign=middle;fontFamily=Helvetica;fontSize=12;fontColor=default;labelBackgroundColor=default;endArrow=none;endFill=0;" edge="1" parent="1" source="Z0_R9jMkdf56CGR1nw3I-56">
          <mxGeometry relative="1" as="geometry">
            <mxPoint x="-200" y="520" as="targetPoint" />
          </mxGeometry>
        </mxCell>
        <mxCell id="Z0_R9jMkdf56CGR1nw3I-56" value="&lt;span style=&quot;color: rgb(0, 0, 0); font-family: Helvetica; font-size: 12px; font-style: normal; font-variant-ligatures: normal; font-variant-caps: normal; font-weight: 400; letter-spacing: normal; orphans: 2; text-align: center; text-indent: 0px; text-transform: none; widows: 2; word-spacing: 0px; -webkit-text-stroke-width: 0px; white-space: normal; background-color: rgb(251, 251, 251); text-decoration-thickness: initial; text-decoration-style: initial; text-decoration-color: initial; display: inline !important; float: none;&quot;&gt;Удаление пользователя&lt;/span&gt;" style="rounded=0;whiteSpace=wrap;html=1;strokeColor=#666666;strokeWidth=2;align=center;verticalAlign=middle;fontFamily=Helvetica;fontSize=12;fontColor=#333333;fillColor=#f5f5f5;" vertex="1" parent="1">
          <mxGeometry x="-320" y="450" width="120" height="45" as="geometry" />
        </mxCell>
        <mxCell id="Z0_R9jMkdf56CGR1nw3I-59" style="edgeStyle=none;shape=connector;rounded=0;orthogonalLoop=1;jettySize=auto;html=1;exitX=0.5;exitY=1;exitDx=0;exitDy=0;strokeColor=default;strokeWidth=2;align=center;verticalAlign=middle;fontFamily=Helvetica;fontSize=12;fontColor=default;labelBackgroundColor=default;endArrow=none;endFill=0;" edge="1" parent="1" source="Z0_R9jMkdf56CGR1nw3I-58">
          <mxGeometry relative="1" as="geometry">
            <mxPoint x="-350" y="340" as="targetPoint" />
          </mxGeometry>
        </mxCell>
        <mxCell id="Z0_R9jMkdf56CGR1nw3I-58" value="&lt;span style=&quot;color: rgb(0, 0, 0); font-family: Helvetica; font-size: 12px; font-style: normal; font-variant-ligatures: normal; font-variant-caps: normal; font-weight: 400; letter-spacing: normal; orphans: 2; text-align: center; text-indent: 0px; text-transform: none; widows: 2; word-spacing: 0px; -webkit-text-stroke-width: 0px; white-space: normal; background-color: rgb(251, 251, 251); text-decoration-thickness: initial; text-decoration-style: initial; text-decoration-color: initial; display: inline !important; float: none;&quot;&gt;Удаление ставки&lt;/span&gt;" style="rounded=0;whiteSpace=wrap;html=1;strokeColor=#666666;strokeWidth=2;align=center;verticalAlign=middle;fontFamily=Helvetica;fontSize=12;fontColor=#333333;fillColor=#f5f5f5;" vertex="1" parent="1">
          <mxGeometry x="-320" y="270" width="120" height="45" as="geometry" />
        </mxCell>
        <mxCell id="Z0_R9jMkdf56CGR1nw3I-61" style="edgeStyle=none;shape=connector;rounded=0;orthogonalLoop=1;jettySize=auto;html=1;exitX=0.5;exitY=0;exitDx=0;exitDy=0;strokeColor=default;strokeWidth=2;align=center;verticalAlign=middle;fontFamily=Helvetica;fontSize=12;fontColor=default;labelBackgroundColor=default;endArrow=none;endFill=0;" edge="1" parent="1" source="Z0_R9jMkdf56CGR1nw3I-60">
          <mxGeometry relative="1" as="geometry">
            <mxPoint x="-370" y="320" as="targetPoint" />
          </mxGeometry>
        </mxCell>
        <mxCell id="Z0_R9jMkdf56CGR1nw3I-60" value="&lt;span style=&quot;color: rgb(0, 0, 0); font-family: Helvetica; font-size: 12px; font-style: normal; font-variant-ligatures: normal; font-variant-caps: normal; font-weight: 400; letter-spacing: normal; orphans: 2; text-align: center; text-indent: 0px; text-transform: none; widows: 2; word-spacing: 0px; -webkit-text-stroke-width: 0px; white-space: normal; background-color: rgb(251, 251, 251); text-decoration-thickness: initial; text-decoration-style: initial; text-decoration-color: initial; display: inline !important; float: none;&quot;&gt;Редактирование информации о ставке&lt;/span&gt;" style="rounded=0;whiteSpace=wrap;html=1;strokeColor=#666666;strokeWidth=2;align=center;verticalAlign=middle;fontFamily=Helvetica;fontSize=12;fontColor=#333333;fillColor=#f5f5f5;" vertex="1" parent="1">
          <mxGeometry x="-520" y="340" width="120" height="45" as="geometry" />
        </mxCell>
      </root>
    </mxGraphModel>
  </diagram>
</mxfile>
